<svg xmlns="http://www.w3.org/2000/svg" width="100" height="100" style="shape-rendering:geometricPrecision;text-rendering:geometricPrecision;image-rendering:optimizeQuality;fill-rule:evenodd;clip-rule:evenodd" viewBox="0 0 100 100"><path style="opacity:1" fill="#010101" d="M31.05 8.05q18.85-.025 37.7.05 5.082.527 8.05 4.65l18.7 32.4q2.29 4.847 0 9.7l-18.3 31.8q-2.962 4.605-8.45 5.15-18.9.1-37.8 0-4.953-.613-7.85-4.65L4.8 55.45q-3.022-5.432-.1-10.9l18.5-32q2.954-3.94 7.85-4.5"/><path style="opacity:1" fill="#43c887" d="M31.15 12.65q18.7-.025 37.4.05 3.491.484 5.05 3.65L91 46.55q1.989 3.241.2 6.6l-17.9 31q-.784-1.883-2.45-3.05a33 33 0 0 0-1.55-.75q-.1-4.8 0-9.6 4.225-3.148 4.9-8.4 6.969-5.587 9.7-14.1Q88.524 31.17 71.65 26q-9.452-2.565-18.7.6-14.042 5.481-10.7 20.25a41.7 41.7 0 0 0-9.1-.35 61.7 61.7 0 0 0-10.3 1.8 41 41 0 0 0-4.8 1.7 45.5 45.5 0 0 0-1.15 7.35 121 121 0 0 0-.1 9.7A1348 1348 0 0 0 9 53.55q-1.989-3.067-.5-6.4a7728 7728 0 0 1 18.7-32.3q1.632-1.753 3.95-2.2"/><path style="opacity:1" fill="#c65d4b" d="M60.45 27.45q8.079-.687 15.3 2.95 8.489 5.154 6.25 14.95-1.828 8.132-7.95 13.75-4.819 4.337-10.8 6.95-3.958-1.79-7.45-4.3a91 91 0 0 0-.7-8.5 29 29 0 0 0 2.95 3.85 12 12 0 0 0 1.3.7 67 67 0 0 0 7.2.1q1.521-.223 2.55-1.35l4.9-6.7a6.3 6.3 0 0 0 .7-1.7q.025-2.901.15-5.8 3.822-1.645 2.85-5.7-1.62-3.518-5.45-2.85-2.41.734-3 3.15h-11.9q-1.056-3.194-4.45-3.3-3.812.487-4.25 4.3.022 3.22 3 4.4a146 146 0 0 1 .15 5.4q.125.721.3 1.4a56 56 0 0 0-7.05-1.9q-3.945-14.086 9.9-18.65 2.736-.75 5.5-1.15"/><path style="opacity:1" fill="#f7dab0" d="M61.95 53.05v2.3h-1.7q-.58-.128-.95-.6a375 375 0 0 1-4.8-6.7 135 135 0 0 1-.2-7.2l-.35-.55a6.8 6.8 0 0 0-1.5-.4q-1.792-.974-.95-2.85 1.177-1.335 2.75-.45.391.291.55.75a7.6 7.6 0 0 0 .4 1.6q.291.391.75.55 7.35.1 14.7 0 .459-.159.75-.55-.004-1.465 1.05-2.45 1.927-.808 2.85 1.05.192 2.509-2.35 2.55-.425.225-.65.65-.006 3.608-.2 7.2A166 166 0 0 1 67.05 55q-.394.322-.9.4-.798.075-1.6.05-.025-1.201.05-2.4 1.277-.428 1.9-1.6.025-1.575-1.55-1.55a4 4 0 0 0-.9.6q-.636.219-1.3.1l-1.1-.7q-2.114.051-1.35 2.05.687.756 1.65 1.1"/><path style="opacity:1" fill="#040303" d="M58.35 42.85q2.041-.117 1.75 1.9-.575 1.143-1.85.85-1.35-.772-.65-2.15.317-.393.75-.6"/><path style="opacity:1" fill="#050403" d="M67.35 42.85q2.422.045 1.55 2.3-.694.678-1.65.45-1.296-.788-.65-2.15.317-.393.75-.6"/><path style="opacity:1" fill="#44c888" d="M36.25 48.85v38.3h1.1q-1.073.173-2.2.05-12.281-4.731-15.25-17.55-1.139-6.056-.6-12.2a51 51 0 0 1 .85-5.7q7.799-2.825 16.1-2.9"/><path style="opacity:1" fill="#6ddd9b" d="M36.25 48.85q8.256.064 16 2.9 1.846 8.284.55 16.7-2.51 13.682-15.45 18.7h-1.1z"/><path style="opacity:1" fill="#8d7d65" d="M61.95 53.05q.149 1.172.1 2.4-.929.049-1.8-.1h1.7z"/><path style="opacity:1" fill="#f6dab0" d="M62.75 85.65v.3h-7.1q-1.479-.203-2.05-1.6a63 63 0 0 1-.15-4.95l.05-4.65a30.6 30.6 0 0 0 1.3-4.2 80 80 0 0 0 .95-5.7 50 50 0 0 0 7 3.75q.5.1 1 0 3.484-1.517 6.7-3.4-2.154 3.979-6.6 4.9a60 60 0 0 1-4.3.2q-.617.267-.95.85-.1 5.4 0 10.8.163.553.65.85 2.158.115 3.25 1.95a2.4 2.4 0 0 1 .25.9"/><path style="opacity:1" fill="#f7dab0" d="M70.65 85.55v.4h-5q-.339-4.03-4.1-5.5a135 135 0 0 1-.1-7.3q2.558-.023 5-.8-.025 4.75.05 9.5.145.595.65.95 2.009.118 3.15 1.75.305.459.35 1"/><path style="opacity:1" fill="#d2ba96" d="M61.45 73.15q-.049 3.661.1 7.3-.2-1.772-.2-3.65 0-1.851.1-3.65"/><path style="opacity:1" fill="#246c48" d="m50.65 84.05-.2-3.7q.043-.118.15-.2.075 1.949.05 3.9"/><path style="opacity:1" fill="#43c786" d="m50.45 80.35.2 3.7q.245 1.689 1.3 3a96 96 0 0 1-6.2.1 33 33 0 0 0 .15-2.1q2.613-2.029 4.55-4.7"/><path style="opacity:1" fill="#645847" d="M62.75 85.65q.14.16.1.4-3.626.05-7.2-.1h7.1z"/><path style="opacity:1" fill="#877760" d="M70.65 85.55q.143.213.1.5a65 65 0 0 1-5.1-.1h5z"/><path style="opacity:1" fill="#287851" d="M51.95 87.05q.118.043.2.15a69 69 0 0 1-6.4-.05 96 96 0 0 0 6.2-.1"/></svg>