<?xml version="1.0" encoding="UTF-8"?><svg xmlns="http://www.w3.org/2000/svg" width="1000" height="1000" style="shape-rendering:geometricPrecision;text-rendering:geometricPrecision;image-rendering:optimizeQuality;fill-rule:evenodd;clip-rule:evenodd"><path style="opacity:1" fill="#010101" d="M310.5 80.5q188.5-.25 377 .5 50.815 5.273 80.5 46.5l187 324q22.898 48.468 0 97l-183 318q-29.615 46.049-84.5 51.5-189 1-378 0-49.529-6.13-78.5-46.5l-183-317q-30.216-54.321-1-109l185-320q29.54-39.396 78.5-45"/><path style="opacity:1" fill="#43c887" d="M311.5 126.5q187-.25 374 .5 34.912 4.835 50.5 36.5l174 302q19.893 32.41 2 66l-179 310q-7.836-18.831-24.5-30.5a331 331 0 0 0-15.5-7.5q-1-48 0-96 42.25-31.48 49-84 69.69-55.866 97-141Q885.235 311.7 716.5 260q-94.518-25.65-187 6-140.423 54.81-107 202.5a416.8 416.8 0 0 0-91-3.5 617 617 0 0 0-103 18 410 410 0 0 0-48 17 455 455 0 0 0-11.5 73.5 1210 1210 0 0 0-1 97 13478 13478 0 0 0-78-135q-19.892-30.67-5-64a77275 77275 0 0 1 187-323q16.319-17.526 39.5-22"/><path style="opacity:1" fill="#c65d4b" d="M604.5 274.5q80.785-6.872 153 29.5 84.892 51.54 62.5 149.5-18.277 81.322-79.5 137.5-48.186 43.37-108 69.5-39.579-17.9-74.5-43a914 914 0 0 0-7-85 289 289 0 0 0 29.5 38.5 121 121 0 0 0 13 7 674 674 0 0 0 72 1q15.208-2.227 25.5-13.5l49-67a63 63 0 0 0 7-17q.25-29.013 1.5-58 38.224-16.45 28.5-57-16.205-35.175-54.5-28.5-24.099 7.342-30 31.5h-119q-10.561-31.937-44.5-33-38.115 4.866-42.5 43 .219 32.198 30 44a1460 1460 0 0 1 1.5 54q1.253 7.205 3 14a562 562 0 0 0-70.5-19q-39.453-140.858 99-186.5 27.357-7.501 55-11.5"/><path style="opacity:1" fill="#f7dab0" d="M619.5 530.5v23h-17q-5.804-1.28-9.5-6a3750 3750 0 0 1-48-67 1353 1353 0 0 1-2-72l-3.5-5.5a68.2 68.2 0 0 0-15-4q-17.915-9.745-9.5-28.5 11.771-13.351 27.5-4.5 3.909 2.907 5.5 7.5a75.6 75.6 0 0 0 4 16q2.907 3.909 7.5 5.5 73.5 1 147 0 4.593-1.591 7.5-5.5-.043-14.646 10.5-24.5 19.266-8.08 28.5 10.5 1.919 25.089-23.5 25.5-4.25 2.25-6.5 6.5-.06 36.075-2 72a1659 1659 0 0 1-50.5 70.5q-3.939 3.219-9 4-7.984.749-16 .5-.25-12.01.5-24 12.77-4.282 19-16 .25-15.75-15.5-15.5a41 41 0 0 0-9 6q-6.361 2.186-13 1l-11-7q-21.144.508-13.5 20.5 6.873 7.562 16.5 11"/><path style="opacity:1" fill="#040303" d="M583.5 428.5q20.405-1.174 17.5 19-5.749 11.433-18.5 8.5-13.496-7.724-6.5-21.5 3.171-3.931 7.5-6"/><path style="opacity:1" fill="#050403" d="M673.5 428.5q24.223.452 15.5 23-6.935 6.782-16.5 4.5-12.961-7.878-6.5-21.5 3.171-3.931 7.5-6"/><path style="opacity:1" fill="#44c888" d="M362.5 488.5v383h11q-10.732 1.733-22 .5Q228.688 824.69 199 696.5q-11.385-60.558-6-122a506 506 0 0 1 8.5-57q77.993-28.249 161-29"/><path style="opacity:1" fill="#6ddd9b" d="M362.5 488.5q82.559.643 160 29 18.46 82.836 5.5 167-25.096 136.825-154.5 187h-11z"/><path style="opacity:1" fill="#8d7d65" d="M619.5 530.5q1.488 11.724 1 24-9.285.485-18-1h17z"/><path style="opacity:1" fill="#f6dab0" d="M627.5 856.5v3h-71q-14.79-2.025-20.5-16a632 632 0 0 1-1.5-49.5l.5-46.5a306 306 0 0 0 13-42 800 800 0 0 0 9.5-57 503 503 0 0 0 70 37.5q5 1 10 0 34.841-15.168 67-34-21.544 39.787-66 49a601 601 0 0 1-43 2q-6.168 2.668-9.5 8.5-1 54 0 108 1.633 5.529 6.5 8.5 21.58 1.153 32.5 19.5a23.9 23.9 0 0 1 2.5 9"/><path style="opacity:1" fill="#f7dab0" d="M706.5 855.5v4h-50q-3.392-40.297-41-55a1351 1351 0 0 1-1-73q25.581-.226 50-8-.25 47.502.5 95 1.446 5.952 6.5 9.5 20.094 1.177 31.5 17.5 3.052 4.592 3.5 10"/><path style="opacity:1" fill="#d2ba96" d="M614.5 731.5q-.485 36.612 1 73-1.998-17.721-2-36.5 0-18.507 1-36.5"/><path style="opacity:1" fill="#246c48" d="m506.5 840.5-2-37q.425-1.184 1.5-2 .75 19.494.5 39"/><path style="opacity:1" fill="#43c786" d="m504.5 803.5 2 37q2.45 16.889 13 30a961 961 0 0 1-62 1 332 332 0 0 0 1.5-21q26.129-20.286 45.5-47"/><path style="opacity:1" fill="#645847" d="M627.5 856.5q1.401 1.602 1 4-36.258.497-72-1h71z"/><path style="opacity:1" fill="#877760" d="M706.5 855.5q1.426 2.128 1 5a651 651 0 0 1-51-1h50z"/><path style="opacity:1" fill="#287851" d="M519.5 870.5q1.184.425 2 1.5a685 685 0 0 1-64-.5 961 961 0 0 0 62-1"/></svg>