<?xml version="1.0" encoding="UTF-8"?><svg xmlns="http://www.w3.org/2000/svg" width="800" height="800" viewBox="0 0 120 120"><path d="M112.613 60A52.613 52.613 0 0 1 60 112.613 52.613 52.613 0 0 1 7.387 60 52.613 52.613 0 0 1 60 7.387 52.613 52.613 0 0 1 112.613 60" style="opacity:1;fill:#80deea;fill-opacity:1;stroke:none;stroke-width:6.9000001;stroke-linecap:round;stroke-linejoin:miter;stroke-miterlimit:4;stroke-dasharray:none;stroke-dashoffset:0;stroke-opacity:1"/><path d="M43.635 49.818V68.42H36.87l-28.624.943c4.527 25.032 26.315 43.24 51.753 43.25 22.619-.02 42.693-14.495 49.856-35.95h-7.245V58.697h-9.724v21.138H79.95V65.46h-7.78v-6.552h-7.187v19.87H53.57v-28.96z" style="fill:#37474f;fill-rule:evenodd;stroke:none;stroke-width:1px;stroke-linecap:butt;stroke-linejoin:miter;stroke-opacity:1"/><path d="M96.903 50.03v25.788h-5.707V68.63h-3.17V50.875h-9.09v36.147h-4.017V79.2h-9.935v-8.455H59.36V51.75l-10.017 5.783v18.285h-7.081v15.431H36.66V65.038h-8.032v-8.033H7.537A53 53 0 0 0 7.387 60 52.613 52.613 0 0 0 60 112.613 52.613 52.613 0 0 0 112.613 60a53 53 0 0 0-.197-4.263h-8.326V50.03z" style="fill:#263238;fill-rule:evenodd;stroke:none;stroke-width:1px;stroke-linecap:butt;stroke-linejoin:miter;stroke-opacity:1"/><path d="M51.098 62.376h2.173v2.173h-2.173zm31.239 9.267h2.173v2.173h-2.173zm2.392-16.89h2.173v2.173h-2.173zm-72.044 6.128h2.172v2.173h-2.172zm16.74 10.164h2.173v2.173h-2.173zm14.798 7.325h2.172v2.172h-2.172zm55.004-25.41h2.173v2.172h-2.173zm7.473 7.025h2.174v2.172H106.7zm-46.3 14.44h2.172v2.173h-2.173zm9.3 6.975h2.173v2.173H69.7z" style="opacity:1;fill:#37474f;fill-opacity:1;stroke:none;stroke-width:6.9000001;stroke-linecap:round;stroke-linejoin:miter;stroke-miterlimit:4;stroke-dasharray:none;stroke-dashoffset:0;stroke-opacity:1"/></svg>