<svg xmlns="http://www.w3.org/2000/svg" width="200" height="200" viewBox="0 0 30 30"><path d="M28.153 15A13.153 13.153 0 0 1 15 28.153 13.153 13.153 0 0 1 1.847 15 13.153 13.153 0 0 1 15 1.847 13.153 13.153 0 0 1 28.153 15" style="opacity:1;fill:#80deea;fill-opacity:1;stroke:none;stroke-width:6.9000001;stroke-linecap:round;stroke-linejoin:miter;stroke-miterlimit:4;stroke-dasharray:none;stroke-dashoffset:0;stroke-opacity:1"/><path d="M10.909 12.454v4.651H9.217l-7.156.236a13.155 13.155 0 0 0 12.938 10.813 13.15 13.15 0 0 0 12.464-8.988h-1.811v-4.492h-2.431v5.285h-3.233v-3.594h-1.945v-1.638h-1.797v4.968h-2.853v-7.24z" style="fill:#37474f;fill-rule:evenodd;stroke:none;stroke-width:1px;stroke-linecap:butt;stroke-linejoin:miter;stroke-opacity:1"/><path d="M24.226 12.508v6.447h-1.427v-1.798h-.792v-4.438h-2.272v9.037h-1.004V19.8h-2.484v-2.114H14.84v-4.748l-2.504 1.446v4.571h-1.77v3.858H9.165v-6.554H7.157v-2.008H1.884a13 13 0 0 0-.037.749A13.153 13.153 0 0 0 15 28.153 13.153 13.153 0 0 0 28.153 15a13 13 0 0 0-.049-1.066h-2.082v-1.426z" style="fill:#263238;fill-rule:evenodd;stroke:none;stroke-width:1px;stroke-linecap:butt;stroke-linejoin:miter;stroke-opacity:1"/><path d="M12.774 15.594h.543v.543h-.543zm7.81 2.317h.543v.543h-.543zm.598-4.223h.543v.543h-.543zM3.171 15.22h.543v.543h-.543zm4.185 2.541h.543v.543h-.543zm3.7 1.831h.543v.543h-.543zm13.751-6.353h.543v.543h-.543zm1.868 1.756h.543v.543h-.543zM15.1 18.605h.543v.543H15.1zm2.325 1.744h.543v.543h-.543z" style="opacity:1;fill:#37474f;fill-opacity:1;stroke:none;stroke-width:6.9000001;stroke-linecap:round;stroke-linejoin:miter;stroke-miterlimit:4;stroke-dasharray:none;stroke-dashoffset:0;stroke-opacity:1"/></svg>