<?xml version="1.0" encoding="UTF-8"?><svg xmlns="http://www.w3.org/2000/svg" width="800" height="800" viewBox="0 0 120 120"><path d="M112.613 60A52.613 52.613 0 0 1 60 112.613 52.613 52.613 0 0 1 7.387 60 52.613 52.613 0 0 1 60 7.387 52.613 52.613 0 0 1 112.613 60" style="opacity:1;fill:#80deea;fill-opacity:1;stroke:none;stroke-width:6.9000001;stroke-linecap:round;stroke-linejoin:miter;stroke-miterlimit:4;stroke-dasharray:none;stroke-dashoffset:0;stroke-opacity:1"/><path d="M99.127 57.102c-.757 0-1.367.61-1.367 1.367v13.247c0 .758.61 1.367 1.367 1.367s1.367-.61 1.367-1.367V58.47c0-.757-.61-1.367-1.367-1.367" style="opacity:1;fill:#00695c;fill-opacity:1;stroke:none;stroke-width:6.9000001;stroke-linecap:round;stroke-linejoin:miter;stroke-miterlimit:4;stroke-dasharray:none;stroke-dashoffset:0;stroke-opacity:1"/><path d="M35.744 62.303c-2.69.018-5.672.932-9.624 3.454-6.853 4.375-12.706 6.683-16.909 7.904A52.61 52.61 0 0 0 60 112.613 52.61 52.61 0 0 0 110.863 73.2c-3.181 1.494-6.277 3.368-8.813 5.712-9.596 8.87-20.028-11.36-40.057-11.061-14.396.215-19.372-5.593-26.249-5.547" style="fill:#ffb300;fill-rule:evenodd;stroke:none;stroke-width:1px;stroke-linecap:butt;stroke-linejoin:miter;stroke-opacity:1"/><path d="M94.755 61.684c0 .757.61 1.367 1.367 1.367h2.313c.757 0 1.367-.61 1.367-1.367s-.61-1.367-1.367-1.367h-2.313c-.757 0-1.367.61-1.367 1.367" style="opacity:1;fill:#00695c;fill-opacity:1;stroke:none;stroke-width:6.9000001;stroke-linecap:round;stroke-linejoin:miter;stroke-miterlimit:4;stroke-dasharray:none;stroke-dashoffset:0;stroke-opacity:1"/><path d="M106.227 63.773a.87.87 0 0 1 .872.871v8.448a.87.87 0 0 1-.872.871.87.87 0 0 1-.871-.871v-8.448a.87.87 0 0 1 .871-.871" style="opacity:1;fill:#004d40;fill-opacity:1;stroke:none;stroke-width:6.9000001;stroke-linecap:round;stroke-linejoin:miter;stroke-miterlimit:4;stroke-dasharray:none;stroke-dashoffset:0;stroke-opacity:1"/><path d="M84.33 62.303c2.691.018 5.673.932 9.624 3.454 6.854 4.375 12.707 6.683 16.91 7.904a52.61 52.61 0 0 1-50.79 38.952A52.61 52.61 0 0 1 9.212 73.2c3.182 1.494 6.278 3.368 8.813 5.712 9.596 8.87 20.029-11.36 40.058-11.061 14.396.215 19.371-5.593 26.248-5.547" style="fill:#ffa000;fill-rule:evenodd;stroke:none;stroke-width:1px;stroke-linecap:butt;stroke-linejoin:miter;stroke-opacity:1"/><path d="M109.016 66.694a.87.87 0 0 1-.872.872h-1.475a.87.87 0 0 1-.872-.872.87.87 0 0 1 .872-.871h1.475a.87.87 0 0 1 .872.871m-2.246 2.046a.87.87 0 0 1-.872.87h-1.475a.87.87 0 0 1-.872-.87.87.87 0 0 1 .872-.872h1.475a.87.87 0 0 1 .872.871" style="opacity:1;fill:#004d40;fill-opacity:1;stroke:none;stroke-width:6.9000001;stroke-linecap:round;stroke-linejoin:miter;stroke-miterlimit:4;stroke-dasharray:none;stroke-dashoffset:0;stroke-opacity:1"/><path d="M89.398 39.951a6.79 6.79 0 0 1-6.793 6.792 6.79 6.79 0 0 1-6.792-6.792 6.79 6.79 0 0 1 6.792-6.792 6.79 6.79 0 0 1 6.793 6.792" style="opacity:1;fill:#fff59d;fill-opacity:1;stroke:none;stroke-width:6.9000001;stroke-linecap:round;stroke-linejoin:miter;stroke-miterlimit:4;stroke-dasharray:none;stroke-dashoffset:0;stroke-opacity:1"/></svg>