<svg xmlns="http://www.w3.org/2000/svg" width="200" height="200" viewBox="0 0 30 30"><path d="M28.153 15A13.153 13.153 0 0 1 15 28.153 13.153 13.153 0 0 1 1.847 15 13.153 13.153 0 0 1 15 1.847 13.153 13.153 0 0 1 28.153 15" style="opacity:1;fill:#80deea;fill-opacity:1;stroke:none;stroke-width:6.9000001;stroke-linecap:round;stroke-linejoin:miter;stroke-miterlimit:4;stroke-dasharray:none;stroke-dashoffset:0;stroke-opacity:1"/><path d="M24.782 14.275a.34.34 0 0 0-.342.342v3.312c0 .19.152.342.342.342s.342-.152.342-.342v-3.312a.34.34 0 0 0-.342-.342" style="opacity:1;fill:#00695c;fill-opacity:1;stroke:none;stroke-width:6.9000001;stroke-linecap:round;stroke-linejoin:miter;stroke-miterlimit:4;stroke-dasharray:none;stroke-dashoffset:0;stroke-opacity:1"/><path d="M8.936 15.576c-.672.004-1.418.233-2.406.864-1.713 1.094-3.176 1.671-4.227 1.976A13.15 13.15 0 0 0 15 28.153 13.15 13.15 0 0 0 27.716 18.3c-.795.373-1.569.842-2.203 1.428-2.399 2.217-5.007-2.84-10.014-2.765-3.599.054-4.843-1.398-6.562-1.387" style="fill:#ffb300;fill-rule:evenodd;stroke:none;stroke-width:1px;stroke-linecap:butt;stroke-linejoin:miter;stroke-opacity:1"/><path d="M23.689 15.421c0 .189.152.342.342.342h.578a.341.341 0 1 0 0-.684h-.578a.34.34 0 0 0-.342.342" style="opacity:1;fill:#00695c;fill-opacity:1;stroke:none;stroke-width:6.9000001;stroke-linecap:round;stroke-linejoin:miter;stroke-miterlimit:4;stroke-dasharray:none;stroke-dashoffset:0;stroke-opacity:1"/><path d="M26.557 15.943a.217.217 0 0 1 .218.218v2.112a.217.217 0 0 1-.218.218.217.217 0 0 1-.218-.218v-2.112a.217.217 0 0 1 .218-.218" style="opacity:1;fill:#004d40;fill-opacity:1;stroke:none;stroke-width:6.9000001;stroke-linecap:round;stroke-linejoin:miter;stroke-miterlimit:4;stroke-dasharray:none;stroke-dashoffset:0;stroke-opacity:1"/><path d="M21.082 15.576c.673.004 1.418.233 2.406.864 1.714 1.094 3.177 1.671 4.228 1.976a13.15 13.15 0 0 1-12.697 9.738A13.15 13.15 0 0 1 2.303 18.3c.795.373 1.569.842 2.203 1.428 2.399 2.217 5.007-2.84 10.014-2.765 3.599.054 4.843-1.398 6.562-1.387" style="fill:#ffa000;fill-rule:evenodd;stroke:none;stroke-width:1px;stroke-linecap:butt;stroke-linejoin:miter;stroke-opacity:1"/><path d="M27.254 16.674a.217.217 0 0 1-.218.218h-.369a.217.217 0 0 1-.218-.218.217.217 0 0 1 .218-.218h.369a.217.217 0 0 1 .218.218m-.561.511a.217.217 0 0 1-.218.217h-.369a.217.217 0 0 1-.218-.217.217.217 0 0 1 .218-.218h.369a.217.217 0 0 1 .218.218" style="opacity:1;fill:#004d40;fill-opacity:1;stroke:none;stroke-width:6.9000001;stroke-linecap:round;stroke-linejoin:miter;stroke-miterlimit:4;stroke-dasharray:none;stroke-dashoffset:0;stroke-opacity:1"/><path d="M22.349 9.988a1.7 1.7 0 0 1-1.698 1.698 1.7 1.7 0 0 1-1.698-1.698 1.7 1.7 0 0 1 1.698-1.698 1.7 1.7 0 0 1 1.698 1.698" style="opacity:1;fill:#fff59d;fill-opacity:1;stroke:none;stroke-width:6.9000001;stroke-linecap:round;stroke-linejoin:miter;stroke-miterlimit:4;stroke-dasharray:none;stroke-dashoffset:0;stroke-opacity:1"/></svg>