<?xml version="1.0" encoding="UTF-8"?><svg xmlns="http://www.w3.org/2000/svg" width="800" height="800" viewBox="0 0 120 120"><path d="M112.613 60A52.613 52.613 0 0 1 60 112.613 52.613 52.613 0 0 1 7.387 60 52.613 52.613 0 0 1 60 7.387 52.613 52.613 0 0 1 112.613 60" style="opacity:1;fill:#80deea;fill-opacity:1;stroke:none;stroke-width:6.9000001;stroke-linecap:round;stroke-linejoin:miter;stroke-miterlimit:4;stroke-dasharray:none;stroke-dashoffset:0;stroke-opacity:1"/><path d="M58.207 45.288 51.78 72.94l-.897-7.474-1.644 5.53-.897-20.327c-1.622 7.358-.126 15.34-9.117 21.224l-5.717-17.481s-2.918 14.738-4.239 12.45c-3.354-5.809-14.724-8.737-14.724-8.737s6.68 4.167 4.085 13.853c-.378 1.41-5.496-9.483-5.496-9.483s-2.478 14.747-2.88 14.436c7.243 21.31 27.239 35.653 49.746 35.682 26.568-.023 48.95-19.85 52.178-46.22-3.848-3.154-3.43-7.526-4.795-11.39l-2.243 16.74-4.185-16.74.598 16.442c-2.93-1.533-3.24-3.814-3.437-6.128l-1.495 7.772c-4.988-6.633-3.98-14.122-3.587-21.523l-3.887 20.776-1.494-4.634-4.335 9.118c-4.792-9.717-4.259-18.37-5.381-27.353l-2.69 24.513-4.484-4.036c2.038 5.786-1.918 6.777-3.438 9.716l.448-24.214-5.231 20.477L60 69.502l-1.644 5.979c-2.67-10.647-.835-20.292-.15-30.193" style="fill:#009688;fill-opacity:1;fill-rule:evenodd;stroke:none;stroke-width:1px;stroke-linecap:butt;stroke-linejoin:miter;stroke-opacity:1"/><path d="M61.793 45.288 68.22 72.94l.897-7.474 1.644 5.53.897-20.327c1.622 7.358.126 15.34 9.118 21.224l5.716-17.481s2.918 14.738 4.239 12.45c3.354-5.809 14.724-8.737 14.724-8.737s-6.68 4.167-4.084 13.853c.377 1.41 5.495-9.483 5.495-9.483s2.478 14.747 2.88 14.436c-7.242 21.31-27.238 35.653-49.746 35.682-26.568-.023-48.95-19.85-52.178-46.22 3.849-3.154 3.43-7.526 4.796-11.39l2.242 16.74 4.185-16.74-.598 16.442c2.93-1.533 3.241-3.814 3.438-6.128l1.495 7.772c4.987-6.633 3.978-14.122 3.587-21.523l3.886 20.776 1.495-4.634 4.334 9.118c4.792-9.717 4.26-18.37 5.381-27.353l2.69 24.513 4.485-4.036c-2.039 5.786 1.917 6.777 3.437 9.716l-.448-24.214 5.232 20.477 2.54-6.427 1.644 5.979c2.67-10.647.835-20.292.15-30.193" style="fill:#00695c;fill-opacity:1;fill-rule:evenodd;stroke:none;stroke-width:1px;stroke-linecap:butt;stroke-linejoin:miter;stroke-opacity:1"/></svg>