<svg xmlns="http://www.w3.org/2000/svg" width="200" height="200" viewBox="0 0 30 30"><path d="M28.153 15A13.153 13.153 0 0 1 15 28.153 13.153 13.153 0 0 1 1.847 15 13.153 13.153 0 0 1 15 1.847 13.153 13.153 0 0 1 28.153 15" style="opacity:1;fill:#80deea;fill-opacity:1;stroke:none;stroke-width:6.9000001;stroke-linecap:round;stroke-linejoin:miter;stroke-miterlimit:4;stroke-dasharray:none;stroke-dashoffset:0;stroke-opacity:1"/><path d="m14.552 11.322-1.607 6.913-.224-1.869-.411 1.383-.224-5.082c-.406 1.839-.032 3.835-2.279 5.306l-1.429-4.37s-.73 3.684-1.06 3.112c-.839-1.452-3.681-2.184-3.681-2.184s1.67 1.042 1.021 3.463c-.095.352-1.374-2.371-1.374-2.371s-.62 3.687-.72 3.609a13.16 13.16 0 0 0 12.437 8.921 13.153 13.153 0 0 0 13.044-11.555c-.962-.788-.858-1.881-1.199-2.848l-.561 4.185-1.046-4.185.149 4.111c-.733-.383-.81-.954-.859-1.532l-.374 1.943c-1.247-1.658-.995-3.53-.897-5.381l-.972 5.194-.373-1.159-1.084 2.28c-1.198-2.429-1.065-4.593-1.345-6.838l-.672 6.128-1.121-1.009c.509 1.446-.479 1.694-.86 2.429l.112-6.053-1.308 5.119L15 17.375l-.411 1.495c-.667-2.662-.209-5.073-.037-7.548" style="fill:#009688;fill-opacity:1;fill-rule:evenodd;stroke:none;stroke-width:1px;stroke-linecap:butt;stroke-linejoin:miter;stroke-opacity:1"/><path d="m15.448 11.322 1.607 6.913.224-1.869.411 1.383.224-5.082c.406 1.839.032 3.835 2.28 5.306l1.429-4.37s.73 3.684 1.06 3.112c.839-1.452 3.681-2.184 3.681-2.184s-1.67 1.042-1.021 3.463c.094.352 1.374-2.371 1.374-2.371s.62 3.687.72 3.609A13.15 13.15 0 0 1 15 28.153 13.153 13.153 0 0 1 1.956 16.598c.962-.788.858-1.881 1.199-2.848l.56 4.185 1.046-4.185-.149 4.111c.733-.383.81-.954.86-1.532l.374 1.943c1.247-1.658.995-3.53.897-5.381l.972 5.194.374-1.159 1.083 2.28c1.198-2.429 1.065-4.593 1.345-6.838l.672 6.128 1.121-1.009c-.51 1.446.479 1.694.859 2.429l-.112-6.053 1.308 5.119.635-1.607.411 1.495c.667-2.662.209-5.073.037-7.548" style="fill:#00695c;fill-opacity:1;fill-rule:evenodd;stroke:none;stroke-width:1px;stroke-linecap:butt;stroke-linejoin:miter;stroke-opacity:1"/></svg>