<?xml version="1.0" encoding="UTF-8"?><svg xmlns="http://www.w3.org/2000/svg" width="800" height="800" viewBox="0 0 120 120"><path d="M112.613 60A52.613 52.613 0 0 1 60 112.613 52.613 52.613 0 0 1 7.387 60 52.613 52.613 0 0 1 60 7.387 52.613 52.613 0 0 1 112.613 60" style="opacity:1;fill:#80deea;fill-opacity:1;stroke:none;stroke-width:6.9000001;stroke-linecap:round;stroke-linejoin:miter;stroke-miterlimit:4;stroke-dasharray:none;stroke-dashoffset:0;stroke-opacity:1"/><path d="m26.963 61.414-5.03 8.71 1.759-6.56-3.748 6.492.75-2.798-1.483 2.567v-4.608l-1.35 5.04-2.59-9.663v10.74l-.999-3.727-1.18 4.407-2.522-9.41s.09 9.684 0 10.02-.985-3.676-.985-3.676v5.136a739 739 0 0 0 14.075 1.847l3.73-6.461-2.28 2.28 1.222-4.562-1.71 2.96z" style="fill:#009688;fill-rule:evenodd;stroke:none;stroke-width:1px;stroke-linecap:butt;stroke-linejoin:miter;stroke-opacity:1"/><path d="M94.347 78.352a35.604 3.237 0 0 1-35.605 3.237 35.604 3.237 0 0 1-35.604-3.237 35.604 3.237 0 0 1 35.604-3.237 35.604 3.237 0 0 1 35.605 3.237" style="opacity:1;fill:#0288d1;fill-opacity:1;stroke:none;stroke-width:6.9000001;stroke-linecap:round;stroke-linejoin:miter;stroke-miterlimit:4;stroke-dasharray:none;stroke-dashoffset:0;stroke-opacity:1"/><path d="m107.956 58.209-2.873 10.722v-7.496l-2.141 7.991V66.23l-.846 3.16-1.316-4.912v5.758l-5.521-9.561 3.068 11.45-2.13-3.689v5.034l-5.375-9.31s2.862 10.297 2.862 10.681c0 .385-2.1-3.638-2.1-3.638l1.467 5.476a816 816 0 0 0 15.53-2.052l2.13-7.952-1.778 3.081v-5.212l-.977 3.645z" style="fill:#009688;fill-rule:evenodd;stroke:none;stroke-width:1px;stroke-linecap:butt;stroke-linejoin:miter;stroke-opacity:1"/><path d="m22.154 63.179 2.603 9.716v-6.793l1.94 7.242v-2.897l.768 2.863 1.192-4.45v5.218l5.003-8.665-2.78 10.375 1.93-3.342v4.562l4.87-8.436s-2.593 9.33-2.593 9.679c0 .348 1.903-3.297 1.903-3.297l-1.33 4.962a739 739 0 0 1-14.072-1.86l-1.93-7.205 1.611 2.792V68.92l.885 3.302zm74.773 1.805-2.23 8.321v-5.818l-1.661 6.202v-2.48l-.657 2.452-1.021-3.812v4.469l-4.285-7.42 2.381 8.885-1.652-2.862v3.907l-4.172-7.225s2.221 7.99 2.221 8.289-1.63-2.823-1.63-2.823l1.139 4.249c5.14-.63 9.364-1.21 12.052-1.593l1.654-6.17-1.38 2.39v-4.044l-.759 2.828z" style="fill:#00695c;fill-rule:evenodd;stroke:none;stroke-width:1px;stroke-linecap:butt;stroke-linejoin:miter;stroke-opacity:1"/><path d="M9.407 73.932c6.346 22.74 27.063 38.468 50.672 38.47 23.59-.025 44.28-15.748 50.622-38.47 0 0-33.765 5.076-50.647 5.076S9.407 73.932 9.407 73.932" style="fill:#3e2723;fill-rule:evenodd;stroke:none;stroke-width:1px;stroke-linecap:butt;stroke-linejoin:miter;stroke-opacity:1"/><path d="M12.733 83.022A52.61 52.61 0 0 0 60 112.613a52.61 52.61 0 0 0 47.236-29.591z" style="fill:#4e342e;fill-rule:evenodd;stroke:none;stroke-width:1px;stroke-linecap:butt;stroke-linejoin:miter;stroke-opacity:1"/><path d="M25.614 58.659a1.775 1.775 0 0 1-1.775 1.775 1.775 1.775 0 0 1-1.775-1.775 1.775 1.775 0 0 1 1.775-1.775 1.775 1.775 0 0 1 1.775 1.775" style="opacity:1;fill:#00897b;fill-opacity:1;stroke:none;stroke-width:6.9000001;stroke-linecap:round;stroke-linejoin:miter;stroke-miterlimit:4;stroke-dasharray:none;stroke-dashoffset:0;stroke-opacity:1"/><path d="M24.642 52.512h3.439v24.064h-3.439z" style="opacity:1;fill:#3e2723;fill-opacity:1;stroke:none;stroke-width:6.9000001;stroke-linecap:round;stroke-linejoin:miter;stroke-miterlimit:4;stroke-dasharray:none;stroke-dashoffset:0;stroke-opacity:1"/><path d="m29.096 54.63 1.294.748-2.429 4.207-1.294-.747z" style="opacity:1;fill:#3e2723;fill-opacity:1;stroke:none;stroke-width:6.9000001;stroke-linecap:round;stroke-linejoin:miter;stroke-miterlimit:4;stroke-dasharray:none;stroke-dashoffset:0;stroke-opacity:1"/><path d="M24.642 57.09a1.775 1.775 0 0 1-1.775 1.774 1.775 1.775 0 0 1-1.774-1.775 1.775 1.775 0 0 1 1.774-1.775 1.775 1.775 0 0 1 1.775 1.775" style="opacity:1;fill:#00695c;fill-opacity:1;stroke:none;stroke-width:6.9000001;stroke-linecap:round;stroke-linejoin:miter;stroke-miterlimit:4;stroke-dasharray:none;stroke-dashoffset:0;stroke-opacity:1"/><path d="M22.512 56.08a1.775 1.775 0 0 1-1.774 1.775 1.775 1.775 0 0 1-1.775-1.775 1.775 1.775 0 0 1 1.775-1.775 1.775 1.775 0 0 1 1.774 1.775" style="opacity:1;fill:#00897b;fill-opacity:1;stroke:none;stroke-width:6.9000001;stroke-linecap:round;stroke-linejoin:miter;stroke-miterlimit:4;stroke-dasharray:none;stroke-dashoffset:0;stroke-opacity:1"/><path d="M22.288 53.838a1.775 1.775 0 0 1-1.775 1.775 1.775 1.775 0 0 1-1.775-1.775 1.775 1.775 0 0 1 1.775-1.775 1.775 1.775 0 0 1 1.775 1.775" style="opacity:1;fill:#00897b;fill-opacity:1;stroke:none;stroke-width:6.9000001;stroke-linecap:round;stroke-linejoin:miter;stroke-miterlimit:4;stroke-dasharray:none;stroke-dashoffset:0;stroke-opacity:1"/><path d="M22.998 51.633a1.775 1.775 0 0 1-1.775 1.775 1.775 1.775 0 0 1-1.775-1.775 1.775 1.775 0 0 1 1.775-1.774 1.775 1.775 0 0 1 1.775 1.774" style="opacity:1;fill:#00897b;fill-opacity:1;stroke:none;stroke-width:6.9000001;stroke-linecap:round;stroke-linejoin:miter;stroke-miterlimit:4;stroke-dasharray:none;stroke-dashoffset:0;stroke-opacity:1"/><path d="M20.98 50.064a1.775 1.775 0 0 1-1.775 1.775 1.775 1.775 0 0 1-1.774-1.775 1.775 1.775 0 0 1 1.774-1.775 1.775 1.775 0 0 1 1.775 1.775" style="opacity:1;fill:#00897b;fill-opacity:1;stroke:none;stroke-width:6.9000001;stroke-linecap:round;stroke-linejoin:miter;stroke-miterlimit:4;stroke-dasharray:none;stroke-dashoffset:0;stroke-opacity:1"/><path d="M21.317 48.233a1.775 1.775 0 0 1-1.775 1.775 1.775 1.775 0 0 1-1.775-1.775 1.775 1.775 0 0 1 1.775-1.775 1.775 1.775 0 0 1 1.775 1.775" style="opacity:1;fill:#00897b;fill-opacity:1;stroke:none;stroke-width:6.9000001;stroke-linecap:round;stroke-linejoin:miter;stroke-miterlimit:4;stroke-dasharray:none;stroke-dashoffset:0;stroke-opacity:1"/><path d="M23.11 47.56a1.775 1.775 0 0 1-1.775 1.775 1.775 1.775 0 0 1-1.775-1.775 1.775 1.775 0 0 1 1.775-1.775 1.775 1.775 0 0 1 1.775 1.775" style="opacity:1;fill:#00897b;fill-opacity:1;stroke:none;stroke-width:6.9000001;stroke-linecap:round;stroke-linejoin:miter;stroke-miterlimit:4;stroke-dasharray:none;stroke-dashoffset:0;stroke-opacity:1"/><path d="M22.288 46.028a1.775 1.775 0 0 1-1.775 1.775 1.775 1.775 0 0 1-1.775-1.775 1.775 1.775 0 0 1 1.775-1.775 1.775 1.775 0 0 1 1.775 1.775" style="opacity:1;fill:#00897b;fill-opacity:1;stroke:none;stroke-width:6.9000001;stroke-linecap:round;stroke-linejoin:miter;stroke-miterlimit:4;stroke-dasharray:none;stroke-dashoffset:0;stroke-opacity:1"/><path d="M24.12 44.646a1.775 1.775 0 0 1-1.776 1.775 1.775 1.775 0 0 1-1.775-1.775 1.775 1.775 0 0 1 1.775-1.775 1.775 1.775 0 0 1 1.775 1.775m-4.185.374a1.775 1.775 0 0 1-1.775 1.774 1.775 1.775 0 0 1-1.775-1.775 1.775 1.775 0 0 1 1.775-1.775 1.775 1.775 0 0 1 1.775 1.775" style="opacity:1;fill:#00897b;fill-opacity:1;stroke:none;stroke-width:6.9000001;stroke-linecap:round;stroke-linejoin:miter;stroke-miterlimit:4;stroke-dasharray:none;stroke-dashoffset:0;stroke-opacity:1"/><path d="M17.692 45.356a1.775 1.775 0 0 1-1.775 1.775 1.775 1.775 0 0 1-1.775-1.775 1.775 1.775 0 0 1 1.775-1.775 1.775 1.775 0 0 1 1.775 1.775" style="opacity:1;fill:#00897b;fill-opacity:1;stroke:none;stroke-width:6.9000001;stroke-linecap:round;stroke-linejoin:miter;stroke-miterlimit:4;stroke-dasharray:none;stroke-dashoffset:0;stroke-opacity:1"/><path d="M17.543 43.002a1.775 1.775 0 0 1-1.775 1.775 1.775 1.775 0 0 1-1.775-1.775 1.775 1.775 0 0 1 1.775-1.775 1.775 1.775 0 0 1 1.775 1.775" style="opacity:1;fill:#00897b;fill-opacity:1;stroke:none;stroke-width:6.9000001;stroke-linecap:round;stroke-linejoin:miter;stroke-miterlimit:4;stroke-dasharray:none;stroke-dashoffset:0;stroke-opacity:1"/><path d="M18.738 40.909a1.775 1.775 0 0 1-1.775 1.775 1.775 1.775 0 0 1-1.775-1.775 1.775 1.775 0 0 1 1.775-1.775 1.775 1.775 0 0 1 1.775 1.775" style="opacity:1;fill:#00897b;fill-opacity:1;stroke:none;stroke-width:6.9000001;stroke-linecap:round;stroke-linejoin:miter;stroke-miterlimit:4;stroke-dasharray:none;stroke-dashoffset:0;stroke-opacity:1"/><path d="M20.644 42.478a1.775 1.775 0 0 1-1.775 1.775 1.775 1.775 0 0 1-1.775-1.775 1.775 1.775 0 0 1 1.775-1.774 1.775 1.775 0 0 1 1.775 1.774" style="opacity:1;fill:#00897b;fill-opacity:1;stroke:none;stroke-width:6.9000001;stroke-linecap:round;stroke-linejoin:miter;stroke-miterlimit:4;stroke-dasharray:none;stroke-dashoffset:0;stroke-opacity:1"/><path d="M22.101 43.114a1.775 1.775 0 0 1-1.774 1.775 1.775 1.775 0 0 1-1.775-1.775 1.775 1.775 0 0 1 1.775-1.775 1.775 1.775 0 0 1 1.774 1.775" style="opacity:1;fill:#00897b;fill-opacity:1;stroke:none;stroke-width:6.9000001;stroke-linecap:round;stroke-linejoin:miter;stroke-miterlimit:4;stroke-dasharray:none;stroke-dashoffset:0;stroke-opacity:1"/><path d="M24.642 42.18a1.775 1.775 0 0 1-1.775 1.774 1.775 1.775 0 0 1-1.774-1.774 1.775 1.775 0 0 1 1.774-1.775 1.775 1.775 0 0 1 1.775 1.775m1.719 13.1a1.775 1.775 0 0 1-1.775 1.776 1.775 1.775 0 0 1-1.775-1.775 1.775 1.775 0 0 1 1.775-1.775 1.775 1.775 0 0 1 1.775 1.775" style="opacity:1;fill:#00897b;fill-opacity:1;stroke:none;stroke-width:6.9000001;stroke-linecap:round;stroke-linejoin:miter;stroke-miterlimit:4;stroke-dasharray:none;stroke-dashoffset:0;stroke-opacity:1"/><path d="M24.568 54.062a1.775 1.775 0 0 1-1.775 1.775 1.775 1.775 0 0 1-1.775-1.775 1.775 1.775 0 0 1 1.775-1.775 1.775 1.775 0 0 1 1.775 1.775" style="opacity:1;fill:#00897b;fill-opacity:1;stroke:none;stroke-width:6.9000001;stroke-linecap:round;stroke-linejoin:miter;stroke-miterlimit:4;stroke-dasharray:none;stroke-dashoffset:0;stroke-opacity:1"/><path d="M26.062 52.045a1.775 1.775 0 0 1-1.775 1.774 1.775 1.775 0 0 1-1.775-1.774 1.775 1.775 0 0 1 1.775-1.775 1.775 1.775 0 0 1 1.775 1.775" style="opacity:1;fill:#00897b;fill-opacity:1;stroke:none;stroke-width:6.9000001;stroke-linecap:round;stroke-linejoin:miter;stroke-miterlimit:4;stroke-dasharray:none;stroke-dashoffset:0;stroke-opacity:1"/><path d="M23.97 49.653a1.775 1.775 0 0 1-1.775 1.775 1.775 1.775 0 0 1-1.775-1.775 1.775 1.775 0 0 1 1.775-1.775 1.775 1.775 0 0 1 1.775 1.775" style="opacity:1;fill:#00897b;fill-opacity:1;stroke:none;stroke-width:6.9000001;stroke-linecap:round;stroke-linejoin:miter;stroke-miterlimit:4;stroke-dasharray:none;stroke-dashoffset:0;stroke-opacity:1"/><path d="M26.698 50.4a1.775 1.775 0 0 1-1.775 1.775 1.775 1.775 0 0 1-1.775-1.775 1.775 1.775 0 0 1 1.775-1.775 1.775 1.775 0 0 1 1.775 1.775" style="opacity:1;fill:#00897b;fill-opacity:1;stroke:none;stroke-width:6.9000001;stroke-linecap:round;stroke-linejoin:miter;stroke-miterlimit:4;stroke-dasharray:none;stroke-dashoffset:0;stroke-opacity:1"/><path d="M25.876 48.868a1.775 1.775 0 0 1-1.775 1.775 1.775 1.775 0 0 1-1.775-1.775 1.775 1.775 0 0 1 1.775-1.775 1.775 1.775 0 0 1 1.775 1.775" style="opacity:1;fill:#00695c;fill-opacity:1;stroke:none;stroke-width:6.9000001;stroke-linecap:round;stroke-linejoin:miter;stroke-miterlimit:4;stroke-dasharray:none;stroke-dashoffset:0;stroke-opacity:1"/><path d="M27.707 47.486a1.775 1.775 0 0 1-1.775 1.775 1.775 1.775 0 0 1-1.775-1.775 1.775 1.775 0 0 1 1.775-1.775 1.775 1.775 0 0 1 1.775 1.775" style="opacity:1;fill:#00897b;fill-opacity:1;stroke:none;stroke-width:6.9000001;stroke-linecap:round;stroke-linejoin:miter;stroke-miterlimit:4;stroke-dasharray:none;stroke-dashoffset:0;stroke-opacity:1"/><path d="M25.689 45.954a1.775 1.775 0 0 1-1.775 1.775 1.775 1.775 0 0 1-1.775-1.775 1.775 1.775 0 0 1 1.775-1.775 1.775 1.775 0 0 1 1.775 1.775" style="opacity:1;fill:#00897b;fill-opacity:1;stroke:none;stroke-width:6.9000001;stroke-linecap:round;stroke-linejoin:miter;stroke-miterlimit:4;stroke-dasharray:none;stroke-dashoffset:0;stroke-opacity:1"/><path d="M28.23 45.02a1.775 1.775 0 0 1-1.775 1.774 1.775 1.775 0 0 1-1.775-1.775 1.775 1.775 0 0 1 1.775-1.775 1.775 1.775 0 0 1 1.775 1.775m1.233 7.773a1.775 1.775 0 0 1-1.775 1.775 1.775 1.775 0 0 1-1.775-1.775 1.775 1.775 0 0 1 1.775-1.775 1.775 1.775 0 0 1 1.775 1.775" style="opacity:1;fill:#00897b;fill-opacity:1;stroke:none;stroke-width:6.9000001;stroke-linecap:round;stroke-linejoin:miter;stroke-miterlimit:4;stroke-dasharray:none;stroke-dashoffset:0;stroke-opacity:1"/><path d="M28.64 51.26a1.775 1.775 0 0 1-1.774 1.775 1.775 1.775 0 0 1-1.775-1.775 1.775 1.775 0 0 1 1.775-1.775 1.775 1.775 0 0 1 1.775 1.775" style="opacity:1;fill:#00897b;fill-opacity:1;stroke:none;stroke-width:6.9000001;stroke-linecap:round;stroke-linejoin:miter;stroke-miterlimit:4;stroke-dasharray:none;stroke-dashoffset:0;stroke-opacity:1"/><path d="M30.472 49.877a1.775 1.775 0 0 1-1.775 1.775 1.775 1.775 0 0 1-1.775-1.775 1.775 1.775 0 0 1 1.775-1.775 1.775 1.775 0 0 1 1.775 1.775" style="opacity:1;fill:#00897b;fill-opacity:1;stroke:none;stroke-width:6.9000001;stroke-linecap:round;stroke-linejoin:miter;stroke-miterlimit:4;stroke-dasharray:none;stroke-dashoffset:0;stroke-opacity:1"/><path d="M28.454 48.345a1.775 1.775 0 0 1-1.775 1.775 1.775 1.775 0 0 1-1.775-1.775 1.775 1.775 0 0 1 1.775-1.775 1.775 1.775 0 0 1 1.775 1.775" style="opacity:1;fill:#00897b;fill-opacity:1;stroke:none;stroke-width:6.9000001;stroke-linecap:round;stroke-linejoin:miter;stroke-miterlimit:4;stroke-dasharray:none;stroke-dashoffset:0;stroke-opacity:1"/><path d="M30.995 47.41a1.775 1.775 0 0 1-1.775 1.776 1.775 1.775 0 0 1-1.775-1.775 1.775 1.775 0 0 1 1.775-1.775 1.775 1.775 0 0 1 1.775 1.775" style="opacity:1;fill:#00897b;fill-opacity:1;stroke:none;stroke-width:6.9000001;stroke-linecap:round;stroke-linejoin:miter;stroke-miterlimit:4;stroke-dasharray:none;stroke-dashoffset:0;stroke-opacity:1"/><path d="M31.78 48.009a1.775 1.775 0 0 1-1.775 1.775 1.775 1.775 0 0 1-1.775-1.775 1.775 1.775 0 0 1 1.775-1.775 1.775 1.775 0 0 1 1.775 1.775" style="opacity:1;fill:#00897b;fill-opacity:1;stroke:none;stroke-width:6.9000001;stroke-linecap:round;stroke-linejoin:miter;stroke-miterlimit:4;stroke-dasharray:none;stroke-dashoffset:0;stroke-opacity:1"/><path d="M30.958 46.477a1.775 1.775 0 0 1-1.775 1.775 1.775 1.775 0 0 1-1.775-1.775 1.775 1.775 0 0 1 1.775-1.775 1.775 1.775 0 0 1 1.775 1.775" style="opacity:1;fill:#004d40;fill-opacity:1;stroke:none;stroke-width:6.9000001;stroke-linecap:round;stroke-linejoin:miter;stroke-miterlimit:4;stroke-dasharray:none;stroke-dashoffset:0;stroke-opacity:1"/><path d="M32.789 45.094a1.775 1.775 0 0 1-1.775 1.775 1.775 1.775 0 0 1-1.775-1.775 1.775 1.775 0 0 1 1.775-1.775 1.775 1.775 0 0 1 1.775 1.775" style="opacity:1;fill:#00897b;fill-opacity:1;stroke:none;stroke-width:6.9000001;stroke-linecap:round;stroke-linejoin:miter;stroke-miterlimit:4;stroke-dasharray:none;stroke-dashoffset:0;stroke-opacity:1"/><path d="M30.77 43.562a1.775 1.775 0 0 1-1.774 1.775 1.775 1.775 0 0 1-1.775-1.775 1.775 1.775 0 0 1 1.775-1.775 1.775 1.775 0 0 1 1.775 1.775" style="opacity:1;fill:#00897b;fill-opacity:1;stroke:none;stroke-width:6.9000001;stroke-linecap:round;stroke-linejoin:miter;stroke-miterlimit:4;stroke-dasharray:none;stroke-dashoffset:0;stroke-opacity:1"/><path d="M34.956 43.45a1.775 1.775 0 0 1-1.775 1.775 1.775 1.775 0 0 1-1.775-1.775 1.775 1.775 0 0 1 1.775-1.775 1.775 1.775 0 0 1 1.775 1.775" style="opacity:1;fill:#004d40;fill-opacity:1;stroke:none;stroke-width:6.9000001;stroke-linecap:round;stroke-linejoin:miter;stroke-miterlimit:4;stroke-dasharray:none;stroke-dashoffset:0;stroke-opacity:1"/><path d="M33.312 42.628a1.775 1.775 0 0 1-1.775 1.775 1.775 1.775 0 0 1-1.775-1.775 1.775 1.775 0 0 1 1.775-1.775 1.775 1.775 0 0 1 1.775 1.775m-7.025.598A1.775 1.775 0 0 1 24.512 45a1.775 1.775 0 0 1-1.775-1.775 1.775 1.775 0 0 1 1.775-1.775 1.775 1.775 0 0 1 1.775 1.775" style="opacity:1;fill:#00897b;fill-opacity:1;stroke:none;stroke-width:6.9000001;stroke-linecap:round;stroke-linejoin:miter;stroke-miterlimit:4;stroke-dasharray:none;stroke-dashoffset:0;stroke-opacity:1"/><path d="M28.902 41.88a1.775 1.775 0 0 1-1.775 1.776 1.775 1.775 0 0 1-1.775-1.775 1.775 1.775 0 0 1 1.775-1.775 1.775 1.775 0 0 1 1.775 1.775" style="opacity:1;fill:#00897b;fill-opacity:1;stroke:none;stroke-width:6.9000001;stroke-linecap:round;stroke-linejoin:miter;stroke-miterlimit:4;stroke-dasharray:none;stroke-dashoffset:0;stroke-opacity:1"/><path d="M31.443 40.834a1.775 1.775 0 0 1-1.775 1.775 1.775 1.775 0 0 1-1.775-1.775 1.775 1.775 0 0 1 1.775-1.775 1.775 1.775 0 0 1 1.775 1.775" style="opacity:1;fill:#00897b;fill-opacity:1;stroke:none;stroke-width:6.9000001;stroke-linecap:round;stroke-linejoin:miter;stroke-miterlimit:4;stroke-dasharray:none;stroke-dashoffset:0;stroke-opacity:1"/><path d="M29.5 39.34a1.775 1.775 0 0 1-1.775 1.775 1.775 1.775 0 0 1-1.775-1.775 1.775 1.775 0 0 1 1.775-1.775A1.775 1.775 0 0 1 29.5 39.34m4.559.523a1.775 1.775 0 0 1-1.775 1.775 1.775 1.775 0 0 1-1.775-1.775 1.775 1.775 0 0 1 1.775-1.775 1.775 1.775 0 0 1 1.775 1.775m-11.061.448a1.775 1.775 0 0 1-1.775 1.775 1.775 1.775 0 0 1-1.775-1.775 1.775 1.775 0 0 1 1.775-1.775 1.775 1.775 0 0 1 1.775 1.775M19.86 52.792a1.775 1.775 0 0 1-1.776 1.775 1.775 1.775 0 0 1-1.774-1.775 1.775 1.775 0 0 1 1.774-1.775 1.775 1.775 0 0 1 1.775 1.775" style="opacity:1;fill:#00897b;fill-opacity:1;stroke:none;stroke-width:6.9000001;stroke-linecap:round;stroke-linejoin:miter;stroke-miterlimit:4;stroke-dasharray:none;stroke-dashoffset:0;stroke-opacity:1"/><path d="M19.635 47.86a1.775 1.775 0 0 1-1.775 1.774 1.775 1.775 0 0 1-1.775-1.775 1.775 1.775 0 0 1 1.775-1.775 1.775 1.775 0 0 1 1.775 1.775" style="opacity:1;fill:#004d40;fill-opacity:1;stroke:none;stroke-width:6.9000001;stroke-linecap:round;stroke-linejoin:miter;stroke-miterlimit:4;stroke-dasharray:none;stroke-dashoffset:0;stroke-opacity:1"/><path d="M19.486 49.578a1.775 1.775 0 0 1-1.775 1.775 1.775 1.775 0 0 1-1.775-1.775 1.775 1.775 0 0 1 1.775-1.775 1.775 1.775 0 0 1 1.775 1.775m14.573-2.242a1.775 1.775 0 0 1-1.775 1.775 1.775 1.775 0 0 1-1.775-1.775 1.775 1.775 0 0 1 1.775-1.775 1.775 1.775 0 0 1 1.775 1.775" style="opacity:1;fill:#00897b;fill-opacity:1;stroke:none;stroke-width:6.9000001;stroke-linecap:round;stroke-linejoin:miter;stroke-miterlimit:4;stroke-dasharray:none;stroke-dashoffset:0;stroke-opacity:1"/><path d="M32.041 50.027a1.775 1.775 0 0 1-1.775 1.775 1.775 1.775 0 0 1-1.775-1.775 1.775 1.775 0 0 1 1.775-1.775 1.775 1.775 0 0 1 1.775 1.775m.846 6.368a1.775 1.775 0 0 1-1.774 1.775 1.775 1.775 0 0 1-1.775-1.775 1.775 1.775 0 0 1 1.775-1.775 1.775 1.775 0 0 1 1.774 1.775" style="opacity:1;fill:#00897b;fill-opacity:1;stroke:none;stroke-width:6.9000001;stroke-linecap:round;stroke-linejoin:miter;stroke-miterlimit:4;stroke-dasharray:none;stroke-dashoffset:0;stroke-opacity:1"/><path d="M34.34 55.18a1.775 1.775 0 0 1-1.774 1.775 1.775 1.775 0 0 1-1.775-1.775 1.775 1.775 0 0 1 1.775-1.775 1.775 1.775 0 0 1 1.775 1.775" style="opacity:1;fill:#00897b;fill-opacity:1;stroke:none;stroke-width:6.9000001;stroke-linecap:round;stroke-linejoin:miter;stroke-miterlimit:4;stroke-dasharray:none;stroke-dashoffset:0;stroke-opacity:1"/><path d="M31.54 54.52a1.775 1.775 0 0 1-1.775 1.774 1.775 1.775 0 0 1-1.775-1.775 1.775 1.775 0 0 1 1.775-1.775 1.775 1.775 0 0 1 1.775 1.775" style="opacity:1;fill:#00897b;fill-opacity:1;stroke:none;stroke-width:6.9000001;stroke-linecap:round;stroke-linejoin:miter;stroke-miterlimit:4;stroke-dasharray:none;stroke-dashoffset:0;stroke-opacity:1"/><path d="M33.495 52.855a1.775 1.775 0 0 1-1.775 1.775 1.775 1.775 0 0 1-1.775-1.775 1.775 1.775 0 0 1 1.775-1.775 1.775 1.775 0 0 1 1.775 1.775" style="opacity:1;fill:#00897b;fill-opacity:1;stroke:none;stroke-width:6.9000001;stroke-linecap:round;stroke-linejoin:miter;stroke-miterlimit:4;stroke-dasharray:none;stroke-dashoffset:0;stroke-opacity:1"/><path d="M35.556 52.564a1.775 1.775 0 0 1-1.775 1.775 1.775 1.775 0 0 1-1.775-1.775 1.775 1.775 0 0 1 1.775-1.775 1.775 1.775 0 0 1 1.775 1.775" style="opacity:1;fill:#00897b;fill-opacity:1;stroke:none;stroke-width:6.9000001;stroke-linecap:round;stroke-linejoin:miter;stroke-miterlimit:4;stroke-dasharray:none;stroke-dashoffset:0;stroke-opacity:1"/><path d="M35.345 53.674a1.775 1.775 0 0 1-1.775 1.775 1.775 1.775 0 0 1-1.775-1.775 1.775 1.775 0 0 1 1.775-1.775 1.775 1.775 0 0 1 1.775 1.775" style="opacity:1;fill:#00897b;fill-opacity:1;stroke:none;stroke-width:6.9000001;stroke-linecap:round;stroke-linejoin:miter;stroke-miterlimit:4;stroke-dasharray:none;stroke-dashoffset:0;stroke-opacity:1"/><path d="M36.481 50.53a1.775 1.775 0 0 1-1.775 1.774 1.775 1.775 0 0 1-1.775-1.775 1.775 1.775 0 0 1 1.775-1.775 1.775 1.775 0 0 1 1.775 1.775" style="opacity:1;fill:#00897b;fill-opacity:1;stroke:none;stroke-width:6.9000001;stroke-linecap:round;stroke-linejoin:miter;stroke-miterlimit:4;stroke-dasharray:none;stroke-dashoffset:0;stroke-opacity:1"/><path d="M38.33 52.696a1.775 1.775 0 0 1-1.774 1.775 1.775 1.775 0 0 1-1.775-1.775 1.775 1.775 0 0 1 1.775-1.775 1.775 1.775 0 0 1 1.775 1.775" style="opacity:1;fill:#00897b;fill-opacity:1;stroke:none;stroke-width:6.9000001;stroke-linecap:round;stroke-linejoin:miter;stroke-miterlimit:4;stroke-dasharray:none;stroke-dashoffset:0;stroke-opacity:1"/><path d="M38.12 54.678a1.775 1.775 0 0 1-1.776 1.775 1.775 1.775 0 0 1-1.775-1.775 1.775 1.775 0 0 1 1.775-1.775 1.775 1.775 0 0 1 1.775 1.775" style="opacity:1;fill:#00897b;fill-opacity:1;stroke:none;stroke-width:6.9000001;stroke-linecap:round;stroke-linejoin:miter;stroke-miterlimit:4;stroke-dasharray:none;stroke-dashoffset:0;stroke-opacity:1"/><path d="M34.975 55.576a1.775 1.775 0 0 1-1.775 1.775 1.775 1.775 0 0 1-1.775-1.775 1.775 1.775 0 0 1 1.775-1.775 1.775 1.775 0 0 1 1.775 1.775m3.461-4.703a1.775 1.775 0 0 1-1.775 1.775 1.775 1.775 0 0 1-1.775-1.775 1.775 1.775 0 0 1 1.775-1.775 1.775 1.775 0 0 1 1.775 1.775" style="opacity:1;fill:#00897b;fill-opacity:1;stroke:none;stroke-width:6.9000001;stroke-linecap:round;stroke-linejoin:miter;stroke-miterlimit:4;stroke-dasharray:none;stroke-dashoffset:0;stroke-opacity:1"/><path d="M26.287 38.787a1.775 1.775 0 0 1-1.775 1.775 1.775 1.775 0 0 1-1.775-1.775 1.775 1.775 0 0 1 1.775-1.775 1.775 1.775 0 0 1 1.775 1.775" style="opacity:1;fill:#00695c;fill-opacity:1;stroke:none;stroke-width:6.9000001;stroke-linecap:round;stroke-linejoin:miter;stroke-miterlimit:4;stroke-dasharray:none;stroke-dashoffset:0;stroke-opacity:1"/><path d="M28.189 40.69a1.775 1.775 0 0 1-1.775 1.774 1.775 1.775 0 0 1-1.775-1.775 1.775 1.775 0 0 1 1.775-1.775 1.775 1.775 0 0 1 1.775 1.775" style="opacity:1;fill:#00897b;fill-opacity:1;stroke:none;stroke-width:6.9000001;stroke-linecap:round;stroke-linejoin:miter;stroke-miterlimit:4;stroke-dasharray:none;stroke-dashoffset:0;stroke-opacity:1"/><path d="M26.287 41.006a1.775 1.775 0 0 1-1.775 1.775 1.775 1.775 0 0 1-1.775-1.775 1.775 1.775 0 0 1 1.775-1.775 1.775 1.775 0 0 1 1.775 1.775" style="opacity:1;fill:#00897b;fill-opacity:1;stroke:none;stroke-width:6.9000001;stroke-linecap:round;stroke-linejoin:miter;stroke-miterlimit:4;stroke-dasharray:none;stroke-dashoffset:0;stroke-opacity:1"/></svg>