<svg xmlns="http://www.w3.org/2000/svg" width="200" height="200" viewBox="0 0 30 30"><path d="M28.153 15A13.153 13.153 0 0 1 15 28.153 13.153 13.153 0 0 1 1.847 15 13.153 13.153 0 0 1 15 1.847 13.153 13.153 0 0 1 28.153 15" style="opacity:1;fill:#80deea;fill-opacity:1;stroke:none;stroke-width:6.9000001;stroke-linecap:round;stroke-linejoin:miter;stroke-miterlimit:4;stroke-dasharray:none;stroke-dashoffset:0;stroke-opacity:1"/><path d="m4.626 11.802-2.757 2.757a13 13 0 0 0-.022.441c0 7.264 5.889 13.153 13.153 13.153a13.15 13.15 0 0 0 11.783-7.344l-7.275-8.121-4.721 4.98Z" style="fill:#009688;fill-opacity:1;fill-rule:evenodd;stroke:none;stroke-width:1px;stroke-linecap:butt;stroke-linejoin:miter;stroke-opacity:1"/><path d="M18.136 12.438a1.7 1.7 0 0 1-1.698 1.698 1.7 1.7 0 0 1-1.698-1.698 1.7 1.7 0 0 1 1.698-1.698 1.7 1.7 0 0 1 1.698 1.698" style="opacity:1;fill:#fff59d;fill-opacity:1;stroke:none;stroke-width:6.9000001;stroke-linecap:round;stroke-linejoin:miter;stroke-miterlimit:4;stroke-dasharray:none;stroke-dashoffset:0;stroke-opacity:1"/><path d="M12.53 8.531 2.38 18.681A13.15 13.15 0 0 0 15 28.154a13.15 13.15 0 0 0 12.715-9.851l-6.677-6.677-1.981 3.431z" style="fill:#00897b;fill-rule:evenodd;stroke:none;stroke-width:1px;stroke-linecap:butt;stroke-linejoin:miter;stroke-opacity:1"/></svg>