<?xml version="1.0" encoding="UTF-8"?><svg xmlns="http://www.w3.org/2000/svg" width="800" height="800" viewBox="0 0 120 120"><path d="M112.613 60A52.613 52.613 0 0 1 60 112.613 52.613 52.613 0 0 1 7.387 60 52.613 52.613 0 0 1 60 7.387 52.613 52.613 0 0 1 112.613 60" style="opacity:1;fill:#80deea;fill-opacity:1;stroke:none;stroke-width:6.9000001;stroke-linecap:round;stroke-linejoin:miter;stroke-miterlimit:4;stroke-dasharray:none;stroke-dashoffset:0;stroke-opacity:1"/><path d="m18.505 47.207-11.03 11.03A53 53 0 0 0 7.387 60c0 29.058 23.555 52.613 52.613 52.613a52.61 52.61 0 0 0 47.132-29.376L78.031 50.754 59.148 70.672Z" style="fill:#009688;fill-opacity:1;fill-rule:evenodd;stroke:none;stroke-width:1px;stroke-linecap:butt;stroke-linejoin:miter;stroke-opacity:1"/><path d="M72.542 49.752a6.79 6.79 0 0 1-6.792 6.792 6.79 6.79 0 0 1-6.792-6.792 6.79 6.79 0 0 1 6.792-6.793 6.79 6.79 0 0 1 6.792 6.793" style="opacity:1;fill:#fff59d;fill-opacity:1;stroke:none;stroke-width:6.9000001;stroke-linecap:round;stroke-linejoin:miter;stroke-miterlimit:4;stroke-dasharray:none;stroke-dashoffset:0;stroke-opacity:1"/><path d="m50.121 34.123-40.6 40.601A52.61 52.61 0 0 0 60 112.614a52.61 52.61 0 0 0 50.86-39.402L84.15 46.504l-7.924 13.725z" style="fill:#00897b;fill-rule:evenodd;stroke:none;stroke-width:1px;stroke-linecap:butt;stroke-linejoin:miter;stroke-opacity:1"/></svg>