<?xml version="1.0" encoding="UTF-8"?><svg xmlns="http://www.w3.org/2000/svg" width="800" height="800" viewBox="0 0 120 120"><path d="M112.613 60A52.613 52.613 0 0 1 60 112.613 52.613 52.613 0 0 1 7.387 60 52.613 52.613 0 0 1 60 7.387 52.613 52.613 0 0 1 112.613 60" style="opacity:1;fill:#80deea;fill-opacity:1;stroke:none;stroke-width:6.9000001;stroke-linecap:round;stroke-linejoin:miter;stroke-miterlimit:4;stroke-dasharray:none;stroke-dashoffset:0;stroke-opacity:1"/><path d="M43.394 58.577c-2.8.054-7.031 1.26-14.402 3.829-8.427 2.937-15.616 3.088-21.382 2.071A52.613 52.613 0 0 0 60 112.613a52.61 52.61 0 0 0 50.725-38.868 24.4 24.4 0 0 0-5.616 1.526c-21.44 8.577-30.375 10.363-45.741-2.501-10.564-8.845-9.812-14.311-15.974-14.193" style="fill:#4fc3f7;fill-opacity:1;fill-rule:evenodd;stroke:none;stroke-width:1px;stroke-linecap:butt;stroke-linejoin:miter;stroke-opacity:1"/><path d="M80.345 58.577c-6.162-.118-5.41 5.348-15.974 14.193-15.366 12.864-24.3 11.078-45.741 2.501-3.349-1.34-6.505-1.84-9.448-1.735A52.61 52.61 0 0 0 60 112.613a52.613 52.613 0 0 0 52.366-47.675c-5.034.368-10.936-.203-17.62-2.532-7.371-2.569-11.6-3.775-14.4-3.829" style="fill:#03a9f4;fill-rule:evenodd;stroke:none;stroke-width:1px;stroke-linecap:butt;stroke-linejoin:miter;stroke-opacity:1"/></svg>