<svg xmlns="http://www.w3.org/2000/svg" width="200" height="200" viewBox="0 0 30 30"><path d="M28.153 15A13.153 13.153 0 0 1 15 28.153 13.153 13.153 0 0 1 1.847 15 13.153 13.153 0 0 1 15 1.847 13.153 13.153 0 0 1 28.153 15" style="opacity:1;fill:#80deea;fill-opacity:1;stroke:none;stroke-width:6.9000001;stroke-linecap:round;stroke-linejoin:miter;stroke-miterlimit:4;stroke-dasharray:none;stroke-dashoffset:0;stroke-opacity:1"/><path d="M10.848 14.644c-.7.013-1.758.315-3.6.957-2.107.734-3.904.772-5.346.518A13.153 13.153 0 0 0 15 28.153a13.15 13.15 0 0 0 12.681-9.717 6 6 0 0 0-1.404.382c-5.36 2.144-7.594 2.591-11.435-.625-2.641-2.211-2.453-3.578-3.994-3.548" style="fill:#4fc3f7;fill-opacity:1;fill-rule:evenodd;stroke:none;stroke-width:1px;stroke-linecap:butt;stroke-linejoin:miter;stroke-opacity:1"/><path d="M20.086 14.644c-1.54-.029-1.353 1.337-3.994 3.548-3.841 3.216-6.075 2.769-11.435.625a5.8 5.8 0 0 0-2.362-.434A13.15 13.15 0 0 0 15 28.153a13.153 13.153 0 0 0 13.091-11.919c-1.258.092-2.734-.051-4.405-.633-1.843-.642-2.9-.944-3.6-.957" style="fill:#03a9f4;fill-rule:evenodd;stroke:none;stroke-width:1px;stroke-linecap:butt;stroke-linejoin:miter;stroke-opacity:1"/></svg>