<svg xmlns="http://www.w3.org/2000/svg" width="1000" height="1000" viewBox="0 0 1000 1000" xml:space="preserve"><path style="stroke:#000;stroke-width:45;stroke-dasharray:none;stroke-linecap:butt;stroke-dashoffset:0;stroke-linejoin:miter;stroke-miterlimit:4;is-custom-font:none;font-file-url:none;fill:#219150;fill-rule:nonzero;opacity:1" vector-effect="non-scaling-stroke" transform="matrix(10.0266 0 0 5.7893 33.763 45.54)" d="M2.617 78.5c0-21.266 5.122-40.436 13.26-54.205C24.047 10.466 34.966 2.5 46.5 2.5s22.452 7.967 30.624 21.795c8.137 13.769 13.26 32.94 13.26 54.205s-5.123 40.436-13.26 54.205C68.952 146.533 58.034 154.5 46.5 154.5s-22.452-7.967-30.624-21.795C7.74 118.936 2.616 99.765 2.616 78.5Z" stroke-linecap="round"/><path style="stroke:#000;stroke-width:.005;stroke-dasharray:none;stroke-linecap:butt;stroke-dashoffset:0;stroke-linejoin:miter;stroke-miterlimit:4;is-custom-font:none;font-file-url:none;fill:#000;fill-rule:nonzero;opacity:1" transform="translate(179.999 119.972)scale(1.41204)" d="m104.546 244.476-53.277 11.951c-26.723 6.002-46.915 27.989-50.65 55.131-3.742 27.13 9.752 53.74 33.859 66.752 27.677 14.944 48.759 26.829 51.939 30.009 3.177 3.181 15.074 24.269 30.01 51.947 13.02 24.108 39.629 37.627 66.777 33.885s49.112-23.954 55.109-50.687l11.943-53.259c9.149-40.77-3.228-83.393-32.779-112.947-29.546-29.543-72.168-41.92-112.931-32.782z" stroke-linecap="round"/><path style="stroke:#000;stroke-width:.005;stroke-dasharray:none;stroke-linecap:butt;stroke-dashoffset:0;stroke-linejoin:miter;stroke-miterlimit:4;is-custom-font:none;font-file-url:none;fill:#000;fill-rule:nonzero;opacity:1" transform="translate(179.978 119.986)scale(1.41204)" d="M271.636 114.101c-21.915-12.777-53.989 1.418-71.655 31.714-17.666 30.271-14.242 65.188 7.654 77.961 21.894 12.777 53.963-1.418 71.641-31.696 17.665-30.296 14.249-65.205-7.64-77.979z" stroke-linecap="round"/><path style="stroke:#000;stroke-width:.005;stroke-dasharray:none;stroke-linecap:butt;stroke-dashoffset:0;stroke-linejoin:miter;stroke-miterlimit:4;is-custom-font:none;font-file-url:none;fill:#000;fill-rule:nonzero;opacity:1" transform="translate(179.967 119.995)scale(1.41204)" d="M281.343 97.438c8.895 5.193 20.333 2.192 25.511-6.71 5.201-8.888 20.244-51.264 11.342-56.443-8.903-5.193-38.377 28.747-43.57 37.642-5.182 8.903-2.193 20.318 6.717 25.511z" stroke-linecap="round"/><path style="stroke:#000;stroke-width:.005;stroke-dasharray:none;stroke-linecap:butt;stroke-dashoffset:0;stroke-linejoin:miter;stroke-miterlimit:4;is-custom-font:none;font-file-url:none;fill:#000;fill-rule:nonzero;opacity:1" transform="translate(179.994 119.99)scale(1.41204)" d="M90.2 209.794c24.097 7.852 52.428-12.8 63.296-46.152 10.867-33.326.128-66.744-23.961-74.57-24.1-7.861-52.469 12.807-63.322 46.144-10.86 33.326-.121 66.744 23.987 74.578z" stroke-linecap="round"/><path style="stroke:#000;stroke-width:.005;stroke-dasharray:none;stroke-linecap:butt;stroke-dashoffset:0;stroke-linejoin:miter;stroke-miterlimit:4;is-custom-font:none;font-file-url:none;fill:#000;fill-rule:nonzero;opacity:1" transform="translate(179.986 120)scale(1.41204)" d="M135.495 70.73c9.799 3.195 20.34-2.171 23.513-11.97 3.195-9.776 8.943-54.371-.866-57.565-9.792-3.195-31.42 36.231-34.598 46.016-3.188 9.805 2.152 20.331 11.951 23.519z" stroke-linecap="round"/><path style="stroke:#000;stroke-width:.005;stroke-dasharray:none;stroke-linecap:butt;stroke-dashoffset:0;stroke-linejoin:miter;stroke-miterlimit:4;is-custom-font:none;font-file-url:none;fill:#000;fill-rule:nonzero;opacity:1" transform="translate(179.968 119.976)scale(1.41204)" d="M350.974 296.815c30.304-17.673 44.499-49.747 31.732-71.651-12.785-21.89-47.693-25.316-77.979-7.631-30.289 17.666-44.48 49.747-31.699 71.636 12.778 21.896 47.687 25.312 77.946 7.646z" stroke-linecap="round"/><path style="stroke:#000;stroke-width:.005;stroke-dasharray:none;stroke-linecap:butt;stroke-dashoffset:0;stroke-linejoin:miter;stroke-miterlimit:4;is-custom-font:none;font-file-url:none;fill:#000;fill-rule:nonzero;opacity:1" transform="translate(179.955 119.98)scale(1.41204)" d="M462.518 178.594c-5.193-8.892-47.562 6.148-56.445 11.341-8.903 5.186-11.904 16.615-6.711 25.518 5.194 8.91 16.605 11.896 25.507 6.717 8.896-5.192 42.843-34.673 37.649-43.576z" stroke-linecap="round"/><path style="stroke:#000;stroke-width:.005;stroke-dasharray:none;stroke-linecap:butt;stroke-dashoffset:0;stroke-linejoin:miter;stroke-miterlimit:4;is-custom-font:none;font-file-url:none;fill:#000;fill-rule:nonzero;opacity:1" transform="translate(179.966 119.962)scale(1.41204)" d="M333.146 343.294c-33.352 10.868-54.003 39.208-46.144 63.315 7.841 24.097 41.245 34.828 74.571 23.976 33.345-10.86 54.011-39.214 46.151-63.322-7.825-24.09-41.233-34.837-74.578-23.969z" stroke-linecap="round"/><path style="stroke:#000;stroke-width:.005;stroke-dasharray:none;stroke-linecap:butt;stroke-dashoffset:0;stroke-linejoin:miter;stroke-miterlimit:4;is-custom-font:none;font-file-url:none;fill:#000;fill-rule:nonzero;opacity:1" transform="translate(179.95 119.96)scale(1.41204)" d="M495.595 338.655c-3.187-9.817-47.774-4.069-57.565-.862-9.792 3.169-15.154 13.702-11.952 23.52 3.181 9.799 13.703 15.132 23.501 11.951 9.803-3.196 49.219-24.81 46.016-34.609z" stroke-linecap="round"/></svg>