<svg id="visual" viewBox="0 0 900 200" width="900" height="200" xmlns="http://www.w3.org/2000/svg" xmlns:xlink="http://www.w3.org/1999/xlink" version="1.1"><path d="M0 56L9.3 57C18.7 58 37.3 60 56.2 56.7C75 53.3 94 44.7 112.8 38.8C131.7 33 150.3 30 169 34C187.7 38 206.3 49 225 51.7C243.7 54.3 262.3 48.7 281.2 48.5C300 48.3 319 53.7 337.8 52.5C356.7 51.3 375.3 43.7 394 42C412.7 40.3 431.3 44.7 450 48.3C468.7 52 487.3 55 506.2 51.2C525 47.3 544 36.7 562.8 31.3C581.7 26 600.3 26 619 28.3C637.7 30.7 656.3 35.3 675 36.7C693.7 38 712.3 36 731.2 37.2C750 38.3 769 42.7 787.8 45.7C806.7 48.7 825.3 50.3 844 46.5C862.7 42.7 881.3 33.3 890.7 28.7L900 24L900 201L890.7 201C881.3 201 862.7 201 844 201C825.3 201 806.7 201 787.8 201C769 201 750 201 731.2 201C712.3 201 693.7 201 675 201C656.3 201 637.7 201 619 201C600.3 201 581.7 201 562.8 201C544 201 525 201 506.2 201C487.3 201 468.7 201 450 201C431.3 201 412.7 201 394 201C375.3 201 356.7 201 337.8 201C319 201 300 201 281.2 201C262.3 201 243.7 201 225 201C206.3 201 187.7 201 169 201C150.3 201 131.7 201 112.8 201C94 201 75 201 56.2 201C37.3 201 18.7 201 9.3 201L0 201Z" fill="#eafaf1"></path><path d="M0 56L9.3 58.5C18.7 61 37.3 66 56.2 64.7C75 63.3 94 55.7 112.8 56C131.7 56.3 150.3 64.7 169 67.5C187.7 70.3 206.3 67.7 225 64.8C243.7 62 262.3 59 281.2 62.3C300 65.7 319 75.3 337.8 74.2C356.7 73 375.3 61 394 55.8C412.7 50.7 431.3 52.3 450 53.8C468.7 55.3 487.3 56.7 506.2 61.5C525 66.3 544 74.7 562.8 73.3C581.7 72 600.3 61 619 60.8C637.7 60.7 656.3 71.3 675 71.5C693.7 71.7 712.3 61.3 731.2 60.2C750 59 769 67 787.8 68.5C806.7 70 825.3 65 844 64.7C862.7 64.3 881.3 68.7 890.7 70.8L900 73L900 201L890.7 201C881.3 201 862.7 201 844 201C825.3 201 806.7 201 787.8 201C769 201 750 201 731.2 201C712.3 201 693.7 201 675 201C656.3 201 637.7 201 619 201C600.3 201 581.7 201 562.8 201C544 201 525 201 506.2 201C487.3 201 468.7 201 450 201C431.3 201 412.7 201 394 201C375.3 201 356.7 201 337.8 201C319 201 300 201 281.2 201C262.3 201 243.7 201 225 201C206.3 201 187.7 201 169 201C150.3 201 131.7 201 112.8 201C94 201 75 201 56.2 201C37.3 201 18.7 201 9.3 201L0 201Z" fill="#c3e5d1"></path><path d="M0 80L9.3 82.7C18.7 85.3 37.3 90.7 56.2 93.8C75 97 94 98 112.8 98.5C131.7 99 150.3 99 169 95.2C187.7 91.3 206.3 83.7 225 83.5C243.7 83.3 262.3 90.7 281.2 94.7C300 98.7 319 99.3 337.8 101.2C356.7 103 375.3 106 394 107.2C412.7 108.3 431.3 107.7 450 105.5C468.7 103.3 487.3 99.7 506.2 95.2C525 90.7 544 85.3 562.8 83C581.7 80.7 600.3 81.3 619 82.3C637.7 83.3 656.3 84.7 675 86.3C693.7 88 712.3 90 731.2 89.8C750 89.7 769 87.3 787.8 84.7C806.7 82 825.3 79 844 78C862.7 77 881.3 78 890.7 78.5L900 79L900 201L890.7 201C881.3 201 862.7 201 844 201C825.3 201 806.7 201 787.8 201C769 201 750 201 731.2 201C712.3 201 693.7 201 675 201C656.3 201 637.7 201 619 201C600.3 201 581.7 201 562.8 201C544 201 525 201 506.2 201C487.3 201 468.7 201 450 201C431.3 201 412.7 201 394 201C375.3 201 356.7 201 337.8 201C319 201 300 201 281.2 201C262.3 201 243.7 201 225 201C206.3 201 187.7 201 169 201C150.3 201 131.7 201 112.8 201C94 201 75 201 56.2 201C37.3 201 18.7 201 9.3 201L0 201Z" fill="#9dd0b1"></path><path d="M0 130L9.3 128.3C18.7 126.7 37.3 123.3 56.2 123.8C75 124.3 94 128.7 112.8 129.2C131.7 129.7 150.3 126.3 169 122.2C187.7 118 206.3 113 225 112.7C243.7 112.3 262.3 116.7 281.2 120.8C300 125 319 129 337.8 126.5C356.7 124 375.3 115 394 110.7C412.7 106.3 431.3 106.7 450 109.3C468.7 112 487.3 117 506.2 121.2C525 125.3 544 128.7 562.8 125.5C581.7 122.3 600.3 112.7 619 108.7C637.7 104.7 656.3 106.3 675 106.8C693.7 107.3 712.3 106.7 731.2 108.7C750 110.7 769 115.3 787.8 115C806.7 114.7 825.3 109.3 844 106.5C862.7 103.7 881.3 103.3 890.7 103.2L900 103L900 201L890.7 201C881.3 201 862.7 201 844 201C825.3 201 806.7 201 787.8 201C769 201 750 201 731.2 201C712.3 201 693.7 201 675 201C656.3 201 637.7 201 619 201C600.3 201 581.7 201 562.8 201C544 201 525 201 506.2 201C487.3 201 468.7 201 450 201C431.3 201 412.7 201 394 201C375.3 201 356.7 201 337.8 201C319 201 300 201 281.2 201C262.3 201 243.7 201 225 201C206.3 201 187.7 201 169 201C150.3 201 131.7 201 112.8 201C94 201 75 201 56.2 201C37.3 201 18.7 201 9.3 201L0 201Z" fill="#77bb91"></path><path d="M0 136L9.3 137.8C18.7 139.7 37.3 143.3 56.2 143.7C75 144 94 141 112.8 142.5C131.7 144 150.3 150 169 151C187.7 152 206.3 148 225 147.8C243.7 147.7 262.3 151.3 281.2 149C300 146.7 319 138.3 337.8 136.3C356.7 134.3 375.3 138.7 394 138.8C412.7 139 431.3 135 450 135.3C468.7 135.7 487.3 140.3 506.2 142.3C525 144.3 544 143.7 562.8 144.3C581.7 145 600.3 147 619 148.2C637.7 149.3 656.3 149.7 675 146.7C693.7 143.7 712.3 137.3 731.2 136.7C750 136 769 141 787.8 142.3C806.7 143.7 825.3 141.3 844 141.2C862.7 141 881.3 143 890.7 144L900 145L900 201L890.7 201C881.3 201 862.7 201 844 201C825.3 201 806.7 201 787.8 201C769 201 750 201 731.2 201C712.3 201 693.7 201 675 201C656.3 201 637.7 201 619 201C600.3 201 581.7 201 562.8 201C544 201 525 201 506.2 201C487.3 201 468.7 201 450 201C431.3 201 412.7 201 394 201C375.3 201 356.7 201 337.8 201C319 201 300 201 281.2 201C262.3 201 243.7 201 225 201C206.3 201 187.7 201 169 201C150.3 201 131.7 201 112.8 201C94 201 75 201 56.2 201C37.3 201 18.7 201 9.3 201L0 201Z" fill="#50a670"></path><path d="M0 162L9.3 163.5C18.7 165 37.3 168 56.2 169.7C75 171.3 94 171.7 112.8 169.7C131.7 167.7 150.3 163.3 169 164.7C187.7 166 206.3 173 225 173C243.7 173 262.3 166 281.2 164.5C300 163 319 167 337.8 168.3C356.7 169.7 375.3 168.3 394 167C412.7 165.7 431.3 164.3 450 163.3C468.7 162.3 487.3 161.7 506.2 161.7C525 161.7 544 162.3 562.8 164.5C581.7 166.7 600.3 170.3 619 172.2C637.7 174 656.3 174 675 172.5C693.7 171 712.3 168 731.2 166.2C750 164.3 769 163.7 787.8 164.7C806.7 165.7 825.3 168.3 844 168.2C862.7 168 881.3 165 890.7 163.5L900 162L900 201L890.7 201C881.3 201 862.7 201 844 201C825.3 201 806.7 201 787.8 201C769 201 750 201 731.2 201C712.3 201 693.7 201 675 201C656.3 201 637.7 201 619 201C600.3 201 581.7 201 562.8 201C544 201 525 201 506.2 201C487.3 201 468.7 201 450 201C431.3 201 412.7 201 394 201C375.3 201 356.7 201 337.8 201C319 201 300 201 281.2 201C262.3 201 243.7 201 225 201C206.3 201 187.7 201 169 201C150.3 201 131.7 201 112.8 201C94 201 75 201 56.2 201C37.3 201 18.7 201 9.3 201L0 201Z" fill="#219150"></path></svg>