<svg id="visual" viewBox="0 0 900 200" width="900" height="200" xmlns="http://www.w3.org/2000/svg" xmlns:xlink="http://www.w3.org/1999/xlink" version="1.1"><path d="M0 145L18.8 149.8C37.7 154.7 75.3 164.3 112.8 169.7C150.3 175 187.7 176 225.2 161.3C262.7 146.7 300.3 116.3 337.8 106.3C375.3 96.3 412.7 106.7 450.2 117.5C487.7 128.3 525.3 139.7 562.8 149.2C600.3 158.7 637.7 166.3 675.2 162.7C712.7 159 750.3 144 787.8 143.2C825.3 142.3 862.7 155.7 881.3 162.3L900 169L900 0L881.3 0C862.7 0 825.3 0 787.8 0C750.3 0 712.7 0 675.2 0C637.7 0 600.3 0 562.8 0C525.3 0 487.7 0 450.2 0C412.7 0 375.3 0 337.8 0C300.3 0 262.7 0 225.2 0C187.7 0 150.3 0 112.8 0C75.3 0 37.7 0 18.8 0L0 0Z" fill="#6ede9c"></path><path d="M0 155L18.8 143.2C37.7 131.3 75.3 107.7 112.8 104.7C150.3 101.7 187.7 119.3 225.2 123.2C262.7 127 300.3 117 337.8 118.2C375.3 119.3 412.7 131.7 450.2 130C487.7 128.3 525.3 112.7 562.8 117.5C600.3 122.3 637.7 147.7 675.2 156C712.7 164.3 750.3 155.7 787.8 142.3C825.3 129 862.7 111 881.3 102L900 93L900 0L881.3 0C862.7 0 825.3 0 787.8 0C750.3 0 712.7 0 675.2 0C637.7 0 600.3 0 562.8 0C525.3 0 487.7 0 450.2 0C412.7 0 375.3 0 337.8 0C300.3 0 262.7 0 225.2 0C187.7 0 150.3 0 112.8 0C75.3 0 37.7 0 18.8 0L0 0Z" fill="#68d795"></path><path d="M0 133L18.8 131.7C37.7 130.3 75.3 127.7 112.8 120.2C150.3 112.7 187.7 100.3 225.2 92.3C262.7 84.3 300.3 80.7 337.8 80.5C375.3 80.3 412.7 83.7 450.2 95.2C487.7 106.7 525.3 126.3 562.8 132.3C600.3 138.3 637.7 130.7 675.2 132.3C712.7 134 750.3 145 787.8 145C825.3 145 862.7 134 881.3 128.5L900 123L900 0L881.3 0C862.7 0 825.3 0 787.8 0C750.3 0 712.7 0 675.2 0C637.7 0 600.3 0 562.8 0C525.3 0 487.7 0 450.2 0C412.7 0 375.3 0 337.8 0C300.3 0 262.7 0 225.2 0C187.7 0 150.3 0 112.8 0C75.3 0 37.7 0 18.8 0L0 0Z" fill="#61d08e"></path><path d="M0 78L18.8 90.5C37.7 103 75.3 128 112.8 133.7C150.3 139.3 187.7 125.7 225.2 120.8C262.7 116 300.3 120 337.8 124C375.3 128 412.7 132 450.2 126.7C487.7 121.3 525.3 106.7 562.8 108.8C600.3 111 637.7 130 675.2 130.3C712.7 130.7 750.3 112.3 787.8 105.8C825.3 99.3 862.7 104.7 881.3 107.3L900 110L900 0L881.3 0C862.7 0 825.3 0 787.8 0C750.3 0 712.7 0 675.2 0C637.7 0 600.3 0 562.8 0C525.3 0 487.7 0 450.2 0C412.7 0 375.3 0 337.8 0C300.3 0 262.7 0 225.2 0C187.7 0 150.3 0 112.8 0C75.3 0 37.7 0 18.8 0L0 0Z" fill="#5ac987"></path><path d="M0 106L18.8 107.7C37.7 109.3 75.3 112.7 112.8 112C150.3 111.3 187.7 106.7 225.2 98.2C262.7 89.7 300.3 77.3 337.8 75.8C375.3 74.3 412.7 83.7 450.2 88.5C487.7 93.3 525.3 93.7 562.8 98.5C600.3 103.3 637.7 112.7 675.2 119.7C712.7 126.7 750.3 131.3 787.8 128C825.3 124.7 862.7 113.3 881.3 107.7L900 102L900 0L881.3 0C862.7 0 825.3 0 787.8 0C750.3 0 712.7 0 675.2 0C637.7 0 600.3 0 562.8 0C525.3 0 487.7 0 450.2 0C412.7 0 375.3 0 337.8 0C300.3 0 262.7 0 225.2 0C187.7 0 150.3 0 112.8 0C75.3 0 37.7 0 18.8 0L0 0Z" fill="#54c27f"></path><path d="M0 88L18.8 87.7C37.7 87.3 75.3 86.7 112.8 88.2C150.3 89.7 187.7 93.3 225.2 89.7C262.7 86 300.3 75 337.8 70.2C375.3 65.3 412.7 66.7 450.2 65.8C487.7 65 525.3 62 562.8 68.5C600.3 75 637.7 91 675.2 100.2C712.7 109.3 750.3 111.7 787.8 106.8C825.3 102 862.7 90 881.3 84L900 78L900 0L881.3 0C862.7 0 825.3 0 787.8 0C750.3 0 712.7 0 675.2 0C637.7 0 600.3 0 562.8 0C525.3 0 487.7 0 450.2 0C412.7 0 375.3 0 337.8 0C300.3 0 262.7 0 225.2 0C187.7 0 150.3 0 112.8 0C75.3 0 37.7 0 18.8 0L0 0Z" fill="#4dba78"></path><path d="M0 71L18.8 71C37.7 71 75.3 71 112.8 69C150.3 67 187.7 63 225.2 65.8C262.7 68.7 300.3 78.3 337.8 77.2C375.3 76 412.7 64 450.2 61.5C487.7 59 525.3 66 562.8 70.8C600.3 75.7 637.7 78.3 675.2 74.7C712.7 71 750.3 61 787.8 55.5C825.3 50 862.7 49 881.3 48.5L900 48L900 0L881.3 0C862.7 0 825.3 0 787.8 0C750.3 0 712.7 0 675.2 0C637.7 0 600.3 0 562.8 0C525.3 0 487.7 0 450.2 0C412.7 0 375.3 0 337.8 0C300.3 0 262.7 0 225.2 0C187.7 0 150.3 0 112.8 0C75.3 0 37.7 0 18.8 0L0 0Z" fill="#47b372"></path><path d="M0 58L18.8 61.8C37.7 65.7 75.3 73.3 112.8 71C150.3 68.7 187.7 56.3 225.2 50.5C262.7 44.7 300.3 45.3 337.8 51.8C375.3 58.3 412.7 70.7 450.2 78.2C487.7 85.7 525.3 88.3 562.8 87.3C600.3 86.3 637.7 81.7 675.2 72.2C712.7 62.7 750.3 48.3 787.8 45.7C825.3 43 862.7 52 881.3 56.5L900 61L900 0L881.3 0C862.7 0 825.3 0 787.8 0C750.3 0 712.7 0 675.2 0C637.7 0 600.3 0 562.8 0C525.3 0 487.7 0 450.2 0C412.7 0 375.3 0 337.8 0C300.3 0 262.7 0 225.2 0C187.7 0 150.3 0 112.8 0C75.3 0 37.7 0 18.8 0L0 0Z" fill="#40ac6b"></path><path d="M0 74L18.8 70.5C37.7 67 75.3 60 112.8 54.7C150.3 49.3 187.7 45.7 225.2 40.8C262.7 36 300.3 30 337.8 29C375.3 28 412.7 32 450.2 33.3C487.7 34.7 525.3 33.3 562.8 38.3C600.3 43.3 637.7 54.7 675.2 61.7C712.7 68.7 750.3 71.3 787.8 71.7C825.3 72 862.7 70 881.3 69L900 68L900 0L881.3 0C862.7 0 825.3 0 787.8 0C750.3 0 712.7 0 675.2 0C637.7 0 600.3 0 562.8 0C525.3 0 487.7 0 450.2 0C412.7 0 375.3 0 337.8 0C300.3 0 262.7 0 225.2 0C187.7 0 150.3 0 112.8 0C75.3 0 37.7 0 18.8 0L0 0Z" fill="#39a664"></path><path d="M0 16L18.8 17.5C37.7 19 75.3 22 112.8 24.8C150.3 27.7 187.7 30.3 225.2 30.2C262.7 30 300.3 27 337.8 30.7C375.3 34.3 412.7 44.7 450.2 43.2C487.7 41.7 525.3 28.3 562.8 26.7C600.3 25 637.7 35 675.2 38C712.7 41 750.3 37 787.8 37.8C825.3 38.7 862.7 44.3 881.3 47.2L900 50L900 0L881.3 0C862.7 0 825.3 0 787.8 0C750.3 0 712.7 0 675.2 0C637.7 0 600.3 0 562.8 0C525.3 0 487.7 0 450.2 0C412.7 0 375.3 0 337.8 0C300.3 0 262.7 0 225.2 0C187.7 0 150.3 0 112.8 0C75.3 0 37.7 0 18.8 0L0 0Z" fill="#319f5d"></path><path d="M0 27L18.8 26.3C37.7 25.7 75.3 24.3 112.8 26.3C150.3 28.3 187.7 33.7 225.2 32.5C262.7 31.3 300.3 23.7 337.8 19.3C375.3 15 412.7 14 450.2 15.2C487.7 16.3 525.3 19.7 562.8 24.5C600.3 29.3 637.7 35.7 675.2 36.5C712.7 37.3 750.3 32.7 787.8 29.8C825.3 27 862.7 26 881.3 25.5L900 25L900 0L881.3 0C862.7 0 825.3 0 787.8 0C750.3 0 712.7 0 675.2 0C637.7 0 600.3 0 562.8 0C525.3 0 487.7 0 450.2 0C412.7 0 375.3 0 337.8 0C300.3 0 262.7 0 225.2 0C187.7 0 150.3 0 112.8 0C75.3 0 37.7 0 18.8 0L0 0Z" fill="#299857"></path><path d="M0 17L18.8 18.3C37.7 19.7 75.3 22.3 112.8 21.8C150.3 21.3 187.7 17.7 225.2 16.7C262.7 15.7 300.3 17.3 337.8 17C375.3 16.7 412.7 14.3 450.2 12C487.7 9.7 525.3 7.3 562.8 8C600.3 8.7 637.7 12.3 675.2 14.8C712.7 17.3 750.3 18.7 787.8 17.3C825.3 16 862.7 12 881.3 10L900 8L900 0L881.3 0C862.7 0 825.3 0 787.8 0C750.3 0 712.7 0 675.2 0C637.7 0 600.3 0 562.8 0C525.3 0 487.7 0 450.2 0C412.7 0 375.3 0 337.8 0C300.3 0 262.7 0 225.2 0C187.7 0 150.3 0 112.8 0C75.3 0 37.7 0 18.8 0L0 0Z" fill="#219150"></path></svg>