<svg id="visual" viewBox="0 0 900 200" width="900" height="200" xmlns="http://www.w3.org/2000/svg" xmlns:xlink="http://www.w3.org/1999/xlink" version="1.1"><path d="M0 44L12.5 43.3C25 42.7 50 41.3 75 48.5C100 55.7 125 71.3 150 77.8C175 84.3 200 81.7 225 77.7C250 73.7 275 68.3 300 58.5C325 48.7 350 34.3 375 40.7C400 47 425 74 450 87.5C475 101 500 101 525 99.3C550 97.7 575 94.3 600 85C625 75.7 650 60.3 675 62C700 63.7 725 82.3 750 79C775 75.7 800 50.3 825 44.3C850 38.3 875 51.7 887.5 58.3L900 65L900 201L887.5 201C875 201 850 201 825 201C800 201 775 201 750 201C725 201 700 201 675 201C650 201 625 201 600 201C575 201 550 201 525 201C500 201 475 201 450 201C425 201 400 201 375 201C350 201 325 201 300 201C275 201 250 201 225 201C200 201 175 201 150 201C125 201 100 201 75 201C50 201 25 201 12.5 201L0 201Z" fill="#6adc98"></path><path d="M0 75L12.5 77.3C25 79.7 50 84.3 75 90.3C100 96.3 125 103.7 150 105.2C175 106.7 200 102.3 225 97C250 91.7 275 85.3 300 75.8C325 66.3 350 53.7 375 52.5C400 51.3 425 61.7 450 74.8C475 88 500 104 525 108.5C550 113 575 106 600 95.2C625 84.3 650 69.7 675 72.3C700 75 725 95 750 97.7C775 100.3 800 85.7 825 81.7C850 77.7 875 84.3 887.5 87.7L900 91L900 201L887.5 201C875 201 850 201 825 201C800 201 775 201 750 201C725 201 700 201 675 201C650 201 625 201 600 201C575 201 550 201 525 201C500 201 475 201 450 201C425 201 400 201 375 201C350 201 325 201 300 201C275 201 250 201 225 201C200 201 175 201 150 201C125 201 100 201 75 201C50 201 25 201 12.5 201L0 201Z" fill="#64d892"></path><path d="M0 62L12.5 69.2C25 76.3 50 90.7 75 91C100 91.3 125 77.7 150 80.8C175 84 200 104 225 111C250 118 275 112 300 107.7C325 103.3 350 100.7 375 94.8C400 89 425 80 450 73.8C475 67.7 500 64.3 525 71.3C550 78.3 575 95.7 600 100C625 104.3 650 95.7 675 86.7C700 77.7 725 68.3 750 73.8C775 79.3 800 99.7 825 102.7C850 105.7 875 91.3 887.5 84.2L900 77L900 201L887.5 201C875 201 850 201 825 201C800 201 775 201 750 201C725 201 700 201 675 201C650 201 625 201 600 201C575 201 550 201 525 201C500 201 475 201 450 201C425 201 400 201 375 201C350 201 325 201 300 201C275 201 250 201 225 201C200 201 175 201 150 201C125 201 100 201 75 201C50 201 25 201 12.5 201L0 201Z" fill="#5dd48c"></path><path d="M0 88L12.5 88.2C25 88.3 50 88.7 75 85.5C100 82.3 125 75.7 150 81.3C175 87 200 105 225 111.5C250 118 275 113 300 112.8C325 112.7 350 117.3 375 112.2C400 107 425 92 450 92.7C475 93.3 500 109.7 525 108.8C550 108 575 90 600 83.8C625 77.7 650 83.3 675 90.8C700 98.3 725 107.7 750 106.7C775 105.7 800 94.3 825 86.8C850 79.3 875 75.7 887.5 73.8L900 72L900 201L887.5 201C875 201 850 201 825 201C800 201 775 201 750 201C725 201 700 201 675 201C650 201 625 201 600 201C575 201 550 201 525 201C500 201 475 201 450 201C425 201 400 201 375 201C350 201 325 201 300 201C275 201 250 201 225 201C200 201 175 201 150 201C125 201 100 201 75 201C50 201 25 201 12.5 201L0 201Z" fill="#57cf87"></path><path d="M0 113L12.5 109.7C25 106.3 50 99.7 75 95.8C100 92 125 91 150 99.2C175 107.3 200 124.7 225 132.2C250 139.7 275 137.3 300 136.8C325 136.3 350 137.7 375 129.5C400 121.3 425 103.7 450 102C475 100.3 500 114.7 525 121.7C550 128.7 575 128.3 600 126.2C625 124 650 120 675 113C700 106 725 96 750 92.2C775 88.3 800 90.7 825 99.2C850 107.7 875 122.3 887.5 129.7L900 137L900 201L887.5 201C875 201 850 201 825 201C800 201 775 201 750 201C725 201 700 201 675 201C650 201 625 201 600 201C575 201 550 201 525 201C500 201 475 201 450 201C425 201 400 201 375 201C350 201 325 201 300 201C275 201 250 201 225 201C200 201 175 201 150 201C125 201 100 201 75 201C50 201 25 201 12.5 201L0 201Z" fill="#50cb81"></path><path d="M0 110L12.5 114C25 118 50 126 75 133.8C100 141.7 125 149.3 150 149.7C175 150 200 143 225 136.8C250 130.7 275 125.3 300 124.8C325 124.3 350 128.7 375 131.3C400 134 425 135 450 137C475 139 500 142 525 142C550 142 575 139 600 131.7C625 124.3 650 112.7 675 111.7C700 110.7 725 120.3 750 122C775 123.7 800 117.3 825 113.3C850 109.3 875 107.7 887.5 106.8L900 106L900 201L887.5 201C875 201 850 201 825 201C800 201 775 201 750 201C725 201 700 201 675 201C650 201 625 201 600 201C575 201 550 201 525 201C500 201 475 201 450 201C425 201 400 201 375 201C350 201 325 201 300 201C275 201 250 201 225 201C200 201 175 201 150 201C125 201 100 201 75 201C50 201 25 201 12.5 201L0 201Z" fill="#4ac77b"></path><path d="M0 125L12.5 128.2C25 131.3 50 137.7 75 144C100 150.3 125 156.7 150 153.8C175 151 200 139 225 138C250 137 275 147 300 147.5C325 148 350 139 375 138.5C400 138 425 146 450 147.3C475 148.7 500 143.3 525 145.5C550 147.7 575 157.3 600 157.3C625 157.3 650 147.7 675 146.3C700 145 725 152 750 149.3C775 146.7 800 134.3 825 135.5C850 136.7 875 151.3 887.5 158.7L900 166L900 201L887.5 201C875 201 850 201 825 201C800 201 775 201 750 201C725 201 700 201 675 201C650 201 625 201 600 201C575 201 550 201 525 201C500 201 475 201 450 201C425 201 400 201 375 201C350 201 325 201 300 201C275 201 250 201 225 201C200 201 175 201 150 201C125 201 100 201 75 201C50 201 25 201 12.5 201L0 201Z" fill="#42c375"></path><path d="M0 162L12.5 162.2C25 162.3 50 162.7 75 160.3C100 158 125 153 150 149.5C175 146 200 144 225 144.3C250 144.7 275 147.3 300 152.7C325 158 350 166 375 169.2C400 172.3 425 170.7 450 168C475 165.3 500 161.7 525 162C550 162.3 575 166.7 600 165C625 163.3 650 155.7 675 156.7C700 157.7 725 167.3 750 167.8C775 168.3 800 159.7 825 153C850 146.3 875 141.7 887.5 139.3L900 137L900 201L887.5 201C875 201 850 201 825 201C800 201 775 201 750 201C725 201 700 201 675 201C650 201 625 201 600 201C575 201 550 201 525 201C500 201 475 201 450 201C425 201 400 201 375 201C350 201 325 201 300 201C275 201 250 201 225 201C200 201 175 201 150 201C125 201 100 201 75 201C50 201 25 201 12.5 201L0 201Z" fill="#3bbe6f"></path><path d="M0 167L12.5 165.8C25 164.7 50 162.3 75 159.5C100 156.7 125 153.3 150 152.8C175 152.3 200 154.7 225 154.8C250 155 275 153 300 156C325 159 350 167 375 170.8C400 174.7 425 174.3 450 171.3C475 168.3 500 162.7 525 161.2C550 159.7 575 162.3 600 166.5C625 170.7 650 176.3 675 178.7C700 181 725 180 750 175.3C775 170.7 800 162.3 825 161.5C850 160.7 875 167.3 887.5 170.7L900 174L900 201L887.5 201C875 201 850 201 825 201C800 201 775 201 750 201C725 201 700 201 675 201C650 201 625 201 600 201C575 201 550 201 525 201C500 201 475 201 450 201C425 201 400 201 375 201C350 201 325 201 300 201C275 201 250 201 225 201C200 201 175 201 150 201C125 201 100 201 75 201C50 201 25 201 12.5 201L0 201Z" fill="#33ba69"></path><path d="M0 174L12.5 177C25 180 50 186 75 185.8C100 185.7 125 179.3 150 177C175 174.7 200 176.3 225 180.5C250 184.7 275 191.3 300 193.2C325 195 350 192 375 189C400 186 425 183 450 181.8C475 180.7 500 181.3 525 179.7C550 178 575 174 600 172.8C625 171.7 650 173.3 675 177.8C700 182.3 725 189.7 750 190.8C775 192 800 187 825 182.7C850 178.3 875 174.7 887.5 172.8L900 171L900 201L887.5 201C875 201 850 201 825 201C800 201 775 201 750 201C725 201 700 201 675 201C650 201 625 201 600 201C575 201 550 201 525 201C500 201 475 201 450 201C425 201 400 201 375 201C350 201 325 201 300 201C275 201 250 201 225 201C200 201 175 201 150 201C125 201 100 201 75 201C50 201 25 201 12.5 201L0 201Z" fill="#2ab663"></path></svg>