<svg viewBox="0 0 225 50" width="225" height="50" xmlns="http://www.w3.org/2000/svg"><path d="m0 11 3.125-.175c3.125-.15 9.375-.5 15.625 1.3s12.5 5.7 18.75 7.325 12.5.975 18.75-.025 12.5-2.35 18.75-4.8 12.5-6.05 18.75-4.45c6.25 1.575 12.5 8.325 18.75 11.7s12.5 3.375 18.75 2.95c6.25-.4 12.5-1.25 18.75-3.575s12.5-6.175 18.75-5.75 12.5 5.075 18.75 4.25 12.5-7.175 18.75-8.675 12.5 1.85 15.625 3.5L225 16.25v34H0Z" fill="#6adc98"/><path d="m0 18.75 3.125.575c3.125.6 9.375 1.75 15.625 3.25s12.5 3.35 18.75 3.725 12.5-.725 18.75-2.05 12.5-2.925 18.75-5.3 12.5-5.525 18.75-5.825 12.5 2.3 18.75 5.575c6.25 3.3 12.5 7.3 18.75 8.425S143.75 26.5 150 23.8c6.25-2.725 12.5-6.375 18.75-5.725 6.25.675 12.5 5.675 18.75 6.35 6.25.65 12.5-3 18.75-4s12.5.65 15.625 1.5l3.125.825v27.5H0Z" fill="#64d892"/><path d="m0 15.5 3.125 1.8c3.125 1.775 9.375 5.375 15.625 5.45s12.5-3.325 18.75-2.55c6.25.8 12.5 5.8 18.75 7.55s12.5.25 18.75-.825c6.25-1.1 12.5-1.75 18.75-3.225 6.25-1.45 12.5-3.7 18.75-5.25 6.25-1.525 12.5-2.375 18.75-.625s12.5 6.1 18.75 7.175 12.5-1.075 18.75-3.325 12.5-4.6 18.75-3.225 12.5 6.475 18.75 7.225 12.5-2.85 15.625-4.625l3.125-1.8v31H0Z" fill="#5dd48c"/><path d="m0 22 3.125.05c3.125.025 9.375.125 15.625-.675s12.5-2.45 18.75-1.05c6.25 1.425 12.5 5.925 18.75 7.55s12.5.375 18.75.325c6.25-.025 12.5 1.125 18.75-.15 6.25-1.3 12.5-5.05 18.75-4.875 6.25.15 12.5 4.25 18.75 4.025 6.25-.2 12.5-4.7 18.75-6.25 6.25-1.525 12.5-.125 18.75 1.75s12.5 4.225 18.75 3.975 12.5-3.1 18.75-4.975 12.5-2.775 15.625-3.25L225 18v32.25H0Z" fill="#57cf87"/><path d="m0 28.25 3.125-.825c3.125-.85 9.375-2.5 15.625-3.475 6.25-.95 12.5-1.2 18.75.85 6.25 2.025 12.5 6.375 18.75 8.25S68.75 34.325 75 34.2s12.5.225 18.75-1.825 12.5-6.45 18.75-6.875 12.5 3.175 18.75 4.925 12.5 1.65 18.75 1.125c6.25-.55 12.5-1.55 18.75-3.3s12.5-4.25 18.75-5.2c6.25-.975 12.5-.375 18.75 1.75s12.5 5.775 15.625 7.625L225 34.25v16H0Z" fill="#50cb81"/><path d="m0 27.5 3.125 1c3.125 1 9.375 3 15.625 4.95 6.25 1.975 12.5 3.875 18.75 3.975C43.75 37.5 50 35.75 56.25 34.2c6.25-1.525 12.5-2.875 18.75-3s12.5.975 18.75 1.625c6.25.675 12.5.925 18.75 1.425s12.5 1.25 18.75 1.25 12.5-.75 18.75-2.575c6.25-1.85 12.5-4.75 18.75-5s12.5 2.15 18.75 2.575 12.5-1.175 18.75-2.175 12.5-1.4 15.625-1.625l3.125-.2v23.75H0Z" fill="#4ac77b"/><path d="m0 31.25 3.125.8C6.25 32.825 12.5 34.425 18.75 36s12.5 3.175 18.75 2.45c6.25-.7 12.5-3.7 18.75-3.95s12.5 2.25 18.75 2.375 12.5-2.125 18.75-2.25 12.5 1.875 18.75 2.2c6.25.35 12.5-1 18.75-.45s12.5 2.95 18.75 2.95 12.5-2.4 18.75-2.75c6.25-.325 12.5 1.425 18.75.75 6.25-.65 12.5-3.75 18.75-3.45s12.5 3.95 15.625 5.8L225 41.5v8.75H0Z" fill="#42c375"/><path d="m0 40.5 3.125.05c3.125.025 9.375.125 15.625-.475 6.25-.575 12.5-1.825 18.75-2.7S50 36 56.25 36.075c6.25.1 12.5.75 18.75 2.1C81.25 39.5 87.5 41.5 93.75 42.3c6.25.775 12.5.375 18.75-.3s12.5-1.575 18.75-1.5 12.5 1.175 18.75.75 12.5-2.325 18.75-2.075 12.5 2.65 18.75 2.775 12.5-2.025 18.75-3.7 12.5-2.825 15.625-3.425L225 34.25v16H0Z" fill="#3bbe6f"/><path d="m0 41.75 3.125-.3c3.125-.275 9.375-.875 15.625-1.575s12.5-1.55 18.75-1.675 12.5.475 18.75.5c6.25.05 12.5-.45 18.75.3s12.5 2.75 18.75 3.7c6.25.975 12.5.875 18.75.125s12.5-2.15 18.75-2.525 12.5.275 18.75 1.325 12.5 2.45 18.75 3.05c6.25.575 12.5.325 18.75-.85 6.25-1.15 12.5-3.25 18.75-3.45s12.5 1.45 15.625 2.3L225 43.5v6.75H0Z" fill="#33ba69"/><path d="m0 43.5 3.125.75C6.25 45 12.5 46.5 18.75 46.45c6.25-.025 12.5-1.625 18.75-2.2s12.5-.175 18.75.875 12.5 2.7 18.75 3.175c6.25.45 12.5-.3 18.75-1.05s12.5-1.5 18.75-1.8c6.25-.275 12.5-.125 18.75-.525C137.5 44.5 143.75 43.5 150 43.2c6.25-.275 12.5.125 18.75 1.25s12.5 2.975 18.75 3.25c6.25.3 12.5-.95 18.75-2.025 6.25-1.1 12.5-2 15.625-2.475l3.125-.45v7.5H0Z" fill="#2ab663"/></svg>