<svg viewBox="0 0 2160 480" width="2160" height="480" xmlns="http://www.w3.org/2000/svg"><path d="m0 314 51.5-.8c51.5-.9 154.5-2.5 257.3 12.1 102.9 14.7 205.5 45.7 308.4 47 102.8 1.4 205.8-27 308.6-37 102.9-10 205.5-1.6 308.4 14.2 102.8 15.8 205.8 39.2 308.6 46.2 102.9 7 205.5-2.4 308.4.6 102.8 3 205.8 18.4 257.3 26l51.5 7.7V0H0Z" fill="#6adc98"/><path d="m0 380 51.5-8.8c51.5-8.9 154.5-26.5 257.3-43.5 102.9-17 205.5-33.4 308.4-24.7 102.8 8.7 205.8 42.3 308.6 54.7 102.9 12.3 205.5 3.3 308.4-1 102.8-4.4 205.8-4 308.6-3.9 102.9.2 205.5.2 308.4-14 102.8-14.1 205.8-42.5 257.3-56.6L2160 268V0H0Z" fill="#62d791"/><path d="m0 320 51.5-10.3c51.5-10.4 154.5-31 257.3-29 102.9 2 205.5 26.6 308.4 21.3 102.8-5.3 205.8-40.7 308.6-51 102.9-10.3 205.5 4.3 308.4 15.3 102.8 11 205.8 18.4 308.6 22.4 102.9 4 205.5 4.6 308.4-1.2 102.8-5.8 205.8-18.2 257.3-24.3l51.5-6.2V0H0Z" fill="#5ad189"/><path d="m0 271 51.5-2.2c51.5-2.1 154.5-6.5 257.3-18.5 102.9-12 205.5-31.6 308.4-38.5C720 205 823 211 925.8 219.2c102.9 8.1 205.5 18.5 308.4 21.3 102.8 2.8 205.8-1.8 308.6 2.7 102.9 4.5 205.5 18.1 308.4 12.8 102.8-5.3 205.8-29.7 257.3-41.8L2160 202V0H0Z" fill="#51cc82"/><path d="m0 207 51.5.3c51.5.4 154.5 1 257.3-6.6 102.9-7.7 205.5-23.7 308.4-23.9 102.8-.1 205.8 15.5 308.6 16 102.9.5 205.5-14.1 308.4-13 102.8 1.2 205.8 18.2 308.6 28 102.9 9.9 205.5 12.5 308.4 13.5 102.8 1 205.8.4 257.3 0l51.5-.3V0H0Z" fill="#49c67a"/><path d="m0 174 51.5-9c51.5-9 154.5-27 257.3-32.2 102.9-5.1 205.5 2.5 308.4 4.9 102.8 2.3 205.8-.7 308.6-1 102.9-.4 205.5 2 308.4 5 102.8 3 205.8 6.6 308.6 5.8 102.9-.8 205.5-6.2 308.4-13.5 102.8-7.3 205.8-16.7 257.3-21.3l51.5-4.7V0H0Z" fill="#3fc172"/><path d="m0 64 51.5 4.7c51.5 4.6 154.5 14 257.3 16.6C411.7 88 514.3 84 617.2 88.5 720 93 823 106 925.8 110.5c102.9 4.5 205.5.5 308.4-6.3 102.8-6.9 205.8-16.5 308.6-23.5 102.9-7 205.5-11.4 308.4-7.2 102.8 4.2 205.8 16.8 257.3 23.2l51.5 6.3V0H0Z" fill="#35bb6b"/><path d="m0 61 51.5.5C103 62 206 63 308.8 66c102.9 3 205.5 8 308.4 3.3 102.8-4.6 205.8-19 308.6-24 102.9-5 205.5-.6 308.4 6.4 102.8 7 205.8 16.6 308.6 13 102.9-3.7 205.5-20.7 308.4-25.9 102.8-5.1 205.8 1.5 257.3 4.9L2160 47V0H0Z" fill="#2ab663"/></svg>