<svg viewBox="0 0 450 100" width="450" height="100" xmlns="http://www.w3.org/2000/svg"><path d="m0 65.417 10.729-.167c10.729-.188 32.188-.521 53.604 2.521 21.438 3.063 42.813 9.521 64.25 9.792 21.417.292 42.875-5.625 64.292-7.708 21.438-2.083 42.813-.333 64.25 2.958 21.417 3.292 42.875 8.167 64.292 9.625 21.438 1.458 42.813-.5 64.25.125 21.417.625 42.875 3.833 53.604 5.417L450 89.584V0H0Z" fill="#6adc98"/><path d="m0 79.167 10.729-1.833a8217 8217 0 0 1 53.604-9.063c21.438-3.542 42.813-6.958 64.25-5.146 21.417 1.813 42.875 8.813 64.292 11.396 21.438 2.563 42.813.688 64.25-.208 21.417-.917 42.875-.833 64.292-.813 21.438.042 42.813.042 64.25-2.917 21.417-2.938 42.875-8.854 53.604-11.792L450 55.833V0H0Z" fill="#62d791"/><path d="m0 66.667 10.729-2.146c10.729-2.167 32.188-6.458 53.604-6.042 21.438.417 42.813 5.542 64.25 4.438 21.417-1.104 42.875-8.479 64.292-10.625 21.438-2.146 42.813.896 64.25 3.188a953 953 0 0 0 64.292 4.667c21.438.833 42.813.958 64.25-.25 21.417-1.208 42.875-3.792 53.604-5.063L450 53.542V0H0Z" fill="#5ad189"/><path d="M0 56.458 10.729 56c10.729-.438 32.188-1.354 53.604-3.854 21.438-2.5 42.813-6.583 64.25-8.021 21.417-1.417 42.875-.167 64.292 1.542 21.438 1.688 42.813 3.854 64.25 4.438 21.417.583 42.875-.375 64.292.563 21.438.938 42.813 3.771 64.25 2.667 21.417-1.104 42.875-6.188 53.604-8.708L450 42.083V0H0Z" fill="#51cc82"/><path d="m0 43.125 10.729.063c10.729.083 32.188.208 53.604-1.375 21.438-1.604 42.813-4.938 64.25-4.979 21.417-.021 42.875 3.229 64.292 3.333 21.438.104 42.813-2.938 64.25-2.708 21.417.25 42.875 3.792 64.292 5.833 21.438 2.063 42.813 2.604 64.25 2.813 21.417.208 42.875.083 53.604 0L450 46.042V0H0Z" fill="#49c67a"/><path d="m0 36.25 10.729-1.875c10.729-1.875 32.188-5.625 53.604-6.708 21.438-1.063 42.813.521 64.25 1.021 21.417.479 42.875-.146 64.292-.208 21.438-.083 42.813.417 64.25 1.042 21.417.625 42.875 1.375 64.292 1.208 21.438-.167 42.813-1.292 64.25-2.813 21.417-1.521 42.875-3.479 53.604-4.438L450 22.5V0H0Z" fill="#3fc172"/><path d="m0 13.333 10.729.979c10.729.958 32.188 2.917 53.604 3.458 21.438.563 42.813-.27 64.25.668 21.417.937 42.875 3.645 64.292 4.583 21.438.938 42.813.104 64.25-1.313 21.417-1.438 42.875-3.438 64.292-4.896 21.438-1.458 42.813-2.375 64.25-1.5 21.417.875 42.875 3.5 53.604 4.833L450 21.458V0H0Z" fill="#35bb6b"/><path d="m0 12.708 10.729.104c10.729.105 32.188.313 53.604.938 21.438.625 42.813 1.667 64.25.688 21.417-.958 42.875-3.958 64.292-5 21.438-1.042 42.813-.125 64.25 1.333 21.417 1.458 42.875 3.458 64.292 2.708 21.438-.771 42.813-4.313 64.25-5.396 21.417-1.063 42.875.313 53.604 1.021L450 9.792V0H0Z" fill="#2ab663"/></svg>